<?xml version="1.0" standalone="no"?>
<!DOCTYPE svg PUBLIC "-//W3C//DTD SVG 1.1//EN" "http://www.w3.org/Graphics/SVG/1.1/DTD/svg11.dtd" >
<svg>
<metadata>
Created by FontForge 20090622 at Wed Mar 15 09:05:03 2017
 By deploy user
&#194;&#169; Copyright 1998, Neufville Digital. ALL RIGHTS RESERVED. This font is licensed, not sold, and may not be reproduced without the written consent of Neufville Digital. Parts &#194;&#169; Visualogik Technology &#38; Design, 1998.The digitally encoded machine readable outlo
</metadata>
<defs>
<font id="Futura-CondensedMedium" horiz-adv-x="848" >
  <font-face 
    font-family="Futura"
    font-weight="500"
    font-stretch="condensed"
    units-per-em="2048"
    panose-1="2 11 5 6 2 2 4 3 2 4"
    ascent="1638"
    descent="-410"
    x-height="1035"
    cap-height="1544"
    bbox="-1020 -578 2222 2069"
    underline-thickness="140"
    underline-position="-150"
    unicode-range="U+0008-U+FB02"
  />
<missing-glyph horiz-adv-x="1024" 
d="M200 0v1544h624v-1544h-624zM781 43v1458h-538v-1458h538z" />
    <glyph glyph-name="fi" unicode="fi" horiz-adv-x="863" 
d="M756 1216h-192v201q0 50 -36 85q-35 36 -85 36t-86 -36q-35 -35 -35 -85v-382h145v-152h-145v-883h-191v883h-96v152h96v382q0 127 92 214q91 88 220 88t220 -88q93 -87 93 -214v-201zM756 0h-192v1035h192v-1035z" />
    <glyph glyph-name="fl" unicode="fl" horiz-adv-x="863" 
d="M756 0h-192v1417q0 50 -36 85q-35 36 -85 36t-86 -36q-35 -35 -35 -85v-382h145v-152h-145v-883h-191v883h-96v152h96v382q0 127 92 214q91 88 220 88t220 -88q93 -87 93 -214v-1417z" />
    <glyph glyph-name=".notdef" horiz-adv-x="1024" 
d="M200 0v1544h624v-1544h-624zM781 43v1458h-538v-1458h538z" />
    <glyph glyph-name=".null" horiz-adv-x="0" 
 />
    <glyph glyph-name="controlCR" horiz-adv-x="1024" 
 />
    <glyph glyph-name="space" unicode=" " horiz-adv-x="424" 
 />
    <glyph glyph-name="zerowidthjoiner" unicode="&#x200d;" horiz-adv-x="0" 
 />
    <glyph glyph-name="endash" unicode="&#x2013;" horiz-adv-x="878" 
d="M131 607h616v-153h-616v153z" />
    <glyph glyph-name="emdash" unicode="&#x2014;" horiz-adv-x="1033" 
d="M0 607h1033v-153h-1033v153z" />
    <glyph glyph-name="quoteleft" unicode="&#x2bb;" horiz-adv-x="473" 
d="M259 1044l-166 49l197 544l106 -30z" />
    <glyph glyph-name="quoteleft" unicode="&#x2018;" horiz-adv-x="473" 
d="M259 1044l-166 49l197 544l106 -30z" />
    <glyph glyph-name="quoteright" unicode="&#x2bc;" horiz-adv-x="473" 
d="M230 1593l166 -49l-198 -544l-105 30z" />
    <glyph glyph-name="quoteright" unicode="&#x2019;" horiz-adv-x="473" 
d="M230 1593l166 -49l-198 -544l-105 30z" />
    <glyph glyph-name="quotesinglbase" unicode="&#x201a;" horiz-adv-x="473" 
d="M214 216l166 -49l-198 -543l-105 29z" />
    <glyph glyph-name="quotedblleft" unicode="&#x201c;" horiz-adv-x="754" 
d="M540 1044l-166 49l197 544l106 -30zM259 1044l-166 49l197 544l106 -30z" />
    <glyph glyph-name="quotedblright" unicode="&#x201d;" horiz-adv-x="754" 
d="M230 1593l166 -49l-198 -544l-105 30zM511 1593l166 -49l-198 -544l-105 30z" />
    <glyph glyph-name="quotedblbase" unicode="&#x201e;" horiz-adv-x="754" 
d="M214 216l166 -49l-198 -543l-105 29zM495 216l166 -49l-198 -543l-105 29z" />
    <glyph glyph-name="dagger" unicode="&#x2020;" horiz-adv-x="880" 
d="M345 1699h193v-510h210v-170h-210v-1412h-193v1412h-213v170h213v510z" />
    <glyph glyph-name="daggerdbl" unicode="&#x2021;" horiz-adv-x="880" 
d="M345 1699h193v-433h210v-170h-210v-543h210v-169h-210v-777h-193v777h-213v169h213v543h-213v170h213v433z" />
    <glyph glyph-name="bullet" unicode="&#x2022;" horiz-adv-x="1544" 
d="M777 1112q128 0 220 -96q93 -95 93 -228q0 -136 -93 -230q-93 -95 -225 -95q-130 0 -225 95q-93 96 -93 229q0 136 94 230q95 95 229 95z" />
    <glyph glyph-name="ellipsis" unicode="&#x2026;" horiz-adv-x="1297" 
d="M219 232q49 0 85 -37q36 -36 36 -87t-36 -87q-38 -35 -87 -35q-26 0 -48.5 9.5t-39.5 26t-26.5 39t-9.5 48.5q0 51 36 87q37 36 90 36zM651 232q51 0 85 -37q36 -36 36 -87t-36 -87q-38 -35 -87 -35q-26 0 -48.5 9.5t-39.5 26t-26.5 39t-9.5 48.5q0 51 37 87t89 36z
M1083 232q50 0 86 -37q36 -36 36 -87t-37 -87q-38 -35 -87 -35t-87 35q-36 36 -36 88q0 51 36 87q37 36 89 36z" />
    <glyph glyph-name="perthousand" unicode="&#x2030;" horiz-adv-x="2268" 
d="M1132 712q149 0 233 -96q84 -95 84 -264q0 -185 -81.5 -281t-237.5 -96q-161 0 -242.5 92t-81.5 273q0 183 82.5 277.5t243.5 94.5zM1130 607q-186 0 -186 -268q0 -260 185 -260q181 0 181 269q0 259 -180 259zM1905 713q149 0 233 -96t84 -268q0 -89 -21.5 -158.5
t-62.5 -117.5t-100.5 -73t-134.5 -25q-161 0 -243.5 92.5t-82.5 272.5q0 183 83.5 278t244.5 95zM1903 609q-187 0 -187 -264q0 -265 185 -265q181 0 181 269q0 260 -179 260zM374 1529q154 0 235 -95t81 -275q0 -172 -87 -272q-87 -99 -237 -99q-77 0 -136.5 25t-100 72
t-62 116t-21.5 156q0 182 83.5 277t244.5 95zM368 1423q-184 0 -184 -271q0 -256 182 -256q184 0 184 265q0 262 -182 262zM1322 1528l-1010 -1550h-141l1011 1550h140z" />
    <glyph glyph-name="guilsinglleft" unicode="&#x2039;" horiz-adv-x="511" 
d="M433 939l-235 -398l214 -409l-90 -50l-245 459l265 454z" />
    <glyph glyph-name="guilsinglright" unicode="&#x203a;" horiz-adv-x="511" 
d="M77 939l92 56l264 -454l-244 -459l-90 50l213 409z" />
    <glyph glyph-name="fraction" unicode="&#x2044;" horiz-adv-x="291" 
d="M465 1544h127l-765 -1544h-127z" />
    <glyph glyph-name="controlNULL" horiz-adv-x="0" 
 />
    <glyph glyph-name="controlNULL" horiz-adv-x="0" 
 />
    <glyph glyph-name="controlBS" horiz-adv-x="0" 
 />
    <glyph glyph-name="controlHT" unicode="&#x9;" horiz-adv-x="424" 
 />
    <glyph glyph-name="controlGS" horiz-adv-x="0" 
 />
    <glyph glyph-name="exclam" unicode="!" horiz-adv-x="571" 
d="M287 231q50 0 86 -36t36 -87t-36 -87q-38 -35 -88 -35q-49 0 -87 35q-36 36 -36 88q0 51 36 86q37 36 89 36zM185 1544h202v-1173h-202v1173z" />
    <glyph glyph-name="quotedbl" unicode="&#x22;" horiz-adv-x="773" 
d="M283 939h-147l-43 605h233zM638 939h-147l-43 605h233z" />
    <glyph glyph-name="numbersign" unicode="#" 
d="M772 666v-172h-164l-60 -494h-165l61 494h-131l-60 -494h-164l61 494h-146v172h168l29 242h-143v172h165l57 464h163l-57 -464h130l58 464h164l-57 -464h162v-172h-183l-30 -242h142zM495 908h-131l-29 -242h131z" />
    <glyph glyph-name="dollar" unicode="$" 
d="M376 1700h91v-137q129 -14 198 -68q69 -53 101 -163l-158 -78q-37 145 -178 145q-173 0 -173 -214q0 -101 43 -156q38 -49 206 -160q171 -112 225 -196q53 -86 53 -245q0 -248 -112 -357q-62 -59 -205 -85v-138h-91v138q-128 14 -193 65q-65 52 -108 174l169 82
q26 -77 65 -107t112 -30q165 0 165 231q0 106 -35 156q-35 51 -173 138q-180 113 -234 191q-80 110 -80 282t84 279q83 106 228 116v137z" />
    <glyph glyph-name="percent" unicode="%" horiz-adv-x="1187" 
d="M516 1180q0 -362 -224 -362q-113 0 -165.5 88.5t-52.5 277.5t52 277t166 88q115 0 169.5 -89.5t54.5 -279.5zM380 1180q0 131 -20 188t-65 57t-64 -54q-18 -54 -18 -189t18 -189q19 -54 64 -54t65 56.5t20 184.5zM913 1544h127l-766 -1544h-127zM1113 335
q0 -357 -219 -357q-112 0 -165 87.5t-53 274.5q0 364 217 364q220 0 220 -369zM979 336q0 130 -19.5 187.5t-64.5 57.5t-63 -54q-17 -59 -17 -188q0 -135 18 -189q18 -53 62 -53q84 0 84 239z" />
    <glyph glyph-name="ampersand" unicode="&#x26;" horiz-adv-x="1051" 
d="M874 593l132 -105l-165 -230l165 -258h-228l-73 120q-114 -129 -265 -129q-141 0 -245 110q-102 111 -102 265q0 104 48 196q48 93 167 215q-124 196 -124 367q0 127 84 210q85 82 216 82q132 0 211 -76q80 -77 80 -200q0 -105 -49 -190q-23 -42 -68 -97.5t-114 -124.5
l204 -334zM459 902q43 45 72 79.5t44 60.5q31 52 31 113q0 57 -30 90.5t-79 33.5q-51 0 -88 -40q-36 -39 -36 -93q0 -77 86 -244zM404 618q-116 -128 -116 -240q0 -90 51 -151q51 -62 123 -62q80 0 157 98z" />
    <glyph glyph-name="quotesingle" unicode="'" horiz-adv-x="418" 
d="M283 939h-147l-43 605h233z" />
    <glyph glyph-name="parenleft" unicode="(" horiz-adv-x="601" 
d="M306 1723l203 -49q-178 -565 -178 -1016q0 -509 178 -1053l-203 -53q-190 542 -190 1090q0 560 190 1081z" />
    <glyph glyph-name="parenright" unicode=")" horiz-adv-x="601" 
d="M296 -448l-203 49q178 565 178 1015q0 508 -178 1054l203 53q190 -543 190 -1091q0 -559 -190 -1080z" />
    <glyph glyph-name="asterisk" unicode="*" 
d="M380 1699h89l-7 -280l264 93l27 -84l-268 -80l170 -223l-72 -52l-158 231l-159 -231l-72 52l170 223l-268 80l27 84l264 -93z" />
    <glyph glyph-name="plus" unicode="+" 
d="M63 704v171h275v271h173v-271h274v-171h-274v-273h-173v273h-275z" />
    <glyph glyph-name="comma" unicode="," horiz-adv-x="424" 
d="M166 216l166 -49l-198 -543l-105 29z" />
    <glyph glyph-name="hyphen" unicode="-" horiz-adv-x="364" 
d="M0 608h364v-156h-364v156z" />
    <glyph glyph-name="period" unicode="." horiz-adv-x="424" 
d="M215 232q49 0 85 -37q36 -36 36 -87t-36 -87q-38 -35 -87 -35q-26 0 -48.5 9.5t-39.5 26t-26.5 39t-9.5 48.5q0 51 36 87q37 36 90 36z" />
    <glyph glyph-name="slash" unicode="/" horiz-adv-x="923" 
d="M823 1699h161l-920 -2123h-163z" />
    <glyph glyph-name="zero" unicode="0" 
d="M773 760q0 -416 -80 -600q-79 -178 -269 -178t-270 179q-79 174 -79 611t79 611q79 180 269 180q176 0 260 -158q90 -167 90 -645zM561 760q0 350 -30 484q-30 133 -109 133t-110 -132q-30 -132 -30 -475t30 -476q31 -132 110 -132q78 0 108 131q31 125 31 467z" />
    <glyph glyph-name="one" unicode="1" 
d="M183 1544h352v-1544h-199v1367h-153v177z" />
    <glyph glyph-name="two" unicode="2" 
d="M302 1042h-204l-2 61q0 253 76 356q77 104 258 104q341 0 341 -378q0 -255 -255 -735l-123 -231l-6 -12l-14 -29h382v-178h-678q17 38 71 151l147 305l132 285t80 192q54 150 54 259q0 192 -133 192q-128 0 -128 -238l1 -88z" />
    <glyph glyph-name="three" unicode="3" 
d="M310 1130h-198v41q0 103 17.5 177t55 122t95.5 70.5t139 22.5q170 0 248 -96t78 -305q0 -172 -36 -248q-35 -77 -135 -117q108 -37 149 -115q41 -77 41 -247q0 -233 -88 -343t-274 -110q-318 0 -318 365v16v11q0 11 1 14h195q-1 -17 -1.5 -29.5t-0.5 -20.5
q0 -79 34.5 -126t94.5 -47q39 0 66.5 15.5t45 50t25.5 89.5t8 133q0 141 -42.5 203t-141.5 62q-11 0 -24 -1.5l-30 -3.5v180h29q121 0 164 52t43 197q0 240 -121 240q-120 0 -120 -205z" />
    <glyph glyph-name="four" unicode="4" 
d="M483 1544h193v-962h99v-159h-99v-423h-193v423h-423v177zM483 582v648l-260 -648h260z" />
    <glyph glyph-name="five" unicode="5" 
d="M249 1544h491v-179h-333l-50 -388h25q91 0 161.5 -29t118.5 -85t73 -138t25 -187q0 -260 -113 -409q-113 -147 -314 -147q-113 0 -245 64l52 184q107 -56 179 -56q102 0 162 92q60 93 60 250q0 297 -255 297q-63 0 -127 -19z" />
    <glyph glyph-name="six" unicode="6" 
d="M405 1544h221l-145 -297q-38 -81 -76.5 -172l-80.5 -194q87 69 167 69q129 0 199 -112q66 -105 66 -376q0 -256 -77 -369q-77 -111 -251 -111q-178 0 -257 123q-79 124 -79 404q0 235 62 448q32 106 94.5 250t156.5 337zM557 463q0 80 -7 136.5t-23 92t-40.5 52
t-59.5 16.5t-59.5 -16.5t-40.5 -51.5t-23 -91.5t-7 -135.5q0 -303 130 -303t130 301z" />
    <glyph glyph-name="seven" unicode="7" 
d="M99 1544h690l-468 -1544h-222l429 1368h-429v176z" />
    <glyph glyph-name="eight" unicode="8" 
d="M576 838q104 -38 143 -121t39 -269q0 -240 -80.5 -353t-252.5 -113q-173 0 -253.5 113t-80.5 353q0 186 39 269t143 121q-92 40 -130 118q-38 84 -38 227q0 99 18.5 171t57.5 118.5t99.5 68.5t144.5 22t144 -22t99 -68.5t57.5 -118.5t18.5 -171q0 -143 -38 -227
q-38 -78 -130 -118zM539 1166q0 218 -115 218q-114 0 -114 -216q0 -240 115 -240q114 0 114 238zM553 424q0 81 -7 138.5t-23 93.5t-40.5 53t-58.5 17q-67 0 -97.5 -69t-30.5 -223q0 -269 129 -269q128 0 128 259z" />
    <glyph glyph-name="nine" unicode="9" 
d="M436 0h-222l149 300l79.5 168.5t77.5 180.5q-77 -62 -159 -62q-137 0 -202 110.5t-65 343.5q0 280 76 401t253 121q179 0 256 -122t77 -406q0 -210 -48 -388q-23 -88 -66 -196.5t-107 -243.5l-81 -169zM553 1068q0 305 -131 305q-130 0 -130 -301q0 -158 30.5 -229
t99.5 -71t100 70.5t31 225.5z" />
    <glyph glyph-name="colon" unicode=":" horiz-adv-x="424" 
d="M215 232q49 0 85 -37q36 -36 36 -87t-36 -87q-38 -35 -87 -35q-26 0 -48.5 9.5t-39.5 26t-26.5 39t-9.5 48.5q0 51 36 87q37 36 90 36zM215 1050q49 0 85 -37q36 -36 36 -86q0 -52 -36 -88t-87 -36q-52 0 -88 36q-36 37 -36 88q0 52 36 87q37 36 90 36z" />
    <glyph glyph-name="semicolon" unicode=";" horiz-adv-x="424" 
d="M166 216l166 -49l-198 -543l-105 29zM220 1050q50 0 86 -37q36 -36 36 -86q0 -52 -36 -88t-88 -36q-51 0 -88 36q-36 36 -36 88q0 53 37 87q37 36 89 36z" />
    <glyph glyph-name="semicolon" unicode="&#x37e;" horiz-adv-x="424" 
d="M166 216l166 -49l-198 -543l-105 29zM220 1050q50 0 86 -37q36 -36 36 -86q0 -52 -36 -88t-88 -36q-51 0 -88 36q-36 36 -36 88q0 53 37 87q37 36 89 36z" />
    <glyph glyph-name="less" unicode="&#x3c;" horiz-adv-x="1158" 
d="M1081 1348v-200l-790 -367l790 -367v-198l-1004 480v172z" />
    <glyph glyph-name="equal" unicode="=" 
d="M63 824v171h722v-171h-722zM63 584v170h722v-170h-722z" />
    <glyph glyph-name="greater" unicode="&#x3e;" horiz-adv-x="1158" 
d="M78 215v200l789 366l-789 368v198l1003 -480v-172z" />
    <glyph glyph-name="question" unicode="?" horiz-adv-x="761" 
d="M456 360h-181v464l46 -1q92 0 124 53t32 206q0 178 -25 240q-24 68 -86 68q-88 0 -88 -170v-62h-185l1 59q0 90 15.5 155t49.5 107t86 61.5t126 19.5q165 0 231 -103q67 -100 67 -355q0 -231 -46 -319q-45 -88 -167 -96v-327zM367 231q49 0 85 -36t36 -87t-36 -87
q-38 -35 -87 -35q-26 0 -48.5 9.5t-39.5 26t-26.5 39t-9.5 48.5q0 51 36 86q37 36 90 36z" />
    <glyph glyph-name="at" unicode="@" horiz-adv-x="1518" 
d="M1122 1177l-62 -524q-4 -28 -5.5 -54t-1.5 -49q0 -65 52 -65q73 0 132 119q59 124 59 265q0 231 -142 379q-141 149 -360 149q-230 0 -384 -180q-155 -179 -155 -444q0 -170 74 -323q74 -146 203 -227q118 -73 288 -73q200 0 400 116l23 13l72 -163l-19 -10
q-230 -125 -474 -125q-279 0 -469 151q-138 109 -214 278q-77 177 -77 363q0 337 211 563q211 228 520 228q281 0 471 -196q191 -197 191 -484q0 -226 -110 -393q-110 -165 -261 -165q-114 0 -165 121q-84 -125 -198 -125q-124 0 -206 118q-81 118 -81 301q0 194 97 324
q98 131 243 131q54 0 88 -22q37 -20 83 -78l14 81h163zM914 803q0 100 -36 165q-36 64 -93 64q-73 0 -123 -86q-49 -85 -49 -212q0 -109 33 -179t84 -70q72 0 128 96q56 98 56 222z" />
    <glyph glyph-name="A" unicode="A" horiz-adv-x="835" 
d="M339 1544h162l331 -1544h-206l-58 301h-306l-59 -301h-200zM538 462l-46 246q-46 251 -75 536q-14 -139 -36 -281.5t-52 -302.5l-38 -198h247z" />
    <glyph glyph-name="B" unicode="B" horiz-adv-x="843" 
d="M119 1544h282q331 0 331 -411q0 -157 -43 -233t-152 -115q125 -50 171 -128q47 -77 47 -232q0 -425 -364 -425h-272v1544zM315 864q121 0 168 56q47 59 47 207q0 250 -180 250h-16h-9q-8 0 -10 -1v-512zM315 178q128 0 177 55t49 199q0 148 -51 207q-50 60 -175 60v-521z
" />
    <glyph glyph-name="C" unicode="C" horiz-adv-x="781" 
d="M725 1519v-187q-80 39 -134 39q-74 0 -127 -36.5t-87.5 -112.5t-51 -192.5t-16.5 -275.5q0 -572 293 -572q51 0 123 32v-191q-75 -42 -168 -42q-469 0 -469 766q0 414 114.5 616t350.5 202q87 0 172 -46z" />
    <glyph glyph-name="D" unicode="D" horiz-adv-x="953" 
d="M119 1544h256q117 0 197 -26q74 -25 132 -89q87 -96 124 -250q37 -149 37 -427q0 -255 -41 -416q-40 -154 -132 -235q-113 -101 -405 -101h-168v1544zM327 182q190 0 254 115q66 115 66 447q0 357 -63 491t-231 134h-26v-1187z" />
    <glyph glyph-name="E" unicode="E" horiz-adv-x="744" 
d="M119 1544h553v-176h-345v-489h306v-176h-306v-527h345v-176h-553v1544z" />
    <glyph glyph-name="F" unicode="F" horiz-adv-x="716" 
d="M119 1544h556v-176h-348v-488h314v-176h-314v-704h-208v1544z" />
    <glyph glyph-name="G" unicode="G" horiz-adv-x="955" 
d="M489 812h378v-60q0 -451 -79 -609q-78 -162 -292 -162q-221 0 -315 180q-93 180 -93 605q0 486 102 647q96 151 295 151q152 0 237 -73q86 -74 134 -243l-194 -81q-13 61 -29 102.5t-35 64.5q-38 47 -114 47q-104 0 -142 -128q-38 -134 -38 -481q0 -351 39 -475t147 -124
q99 0 139 88q41 94 41 302v42v31h-181v176z" />
    <glyph glyph-name="H" unicode="H" horiz-adv-x="959" 
d="M119 1544h208v-604h305v604h208v-1544h-208v764h-305v-764h-208v1544z" />
    <glyph glyph-name="I" unicode="I" horiz-adv-x="446" 
d="M119 1544h208v-1544h-208v1544z" />
    <glyph glyph-name="J" unicode="J" horiz-adv-x="599" 
d="M271 1544h209v-1185q0 -181 -53 -261q-78 -117 -254 -117q-104 0 -177 40v208q89 -53 138 -53q137 0 137 193v62v1113z" />
    <glyph glyph-name="K" unicode="K" horiz-adv-x="862" 
d="M119 1544h208v-748l290 748h210l-304 -748l328 -796h-234l-290 796v-796h-208v1544z" />
    <glyph glyph-name="L" unicode="L" horiz-adv-x="678" 
d="M119 1544h208v-1368h340v-176h-548v1544z" />
    <glyph glyph-name="M" unicode="M" horiz-adv-x="1168" 
d="M192 1544h178l136 -630q25 -118 45.5 -236.5t37.5 -248.5q2 17 3 26.5t2 13.5l29 177l26 168l23 111l121 619h180l142 -1544h-199l-35 524l-3.5 69t-1.5 48l-9 207l-5 190q0 2 -0.5 8.5t-1.5 17.5l-5 -31l-14.5 -96t-11.5 -69l-26 -141l-10 -53l-130 -674h-140l-122 582
q-25 115 -44.5 233.5t-35.5 248.5l-60 -1064h-196z" />
    <glyph glyph-name="N" unicode="N" horiz-adv-x="958" 
d="M119 1544h194l207 -616q90 -261 159 -557q-25 179 -37 324t-12 273v576h209v-1544h-195l-233 695q-32 97 -60.5 199t-52.5 214q-2 14 -6.5 34l-10.5 46l5 -44.5t3 -31.5l11 -157l11 -191q1 -16 1.5 -39t0.5 -52l11 -673h-205v1544z" />
    <glyph glyph-name="O" unicode="O" horiz-adv-x="979" 
d="M892 734q0 -409 -91 -581t-305 -172q-225 0 -317 185q-91 181 -91 643q0 412 90 583q91 172 308 172q194 0 288 -133q62 -89 90 -253q28 -152 28 -444zM674 712q0 401 -36 532q-36 132 -147 132t-148 -121q-36 -122 -36 -490q0 -339 38 -470q39 -124 146 -124
q105 0 144 116q39 115 39 425z" />
    <glyph glyph-name="P" unicode="P" horiz-adv-x="812" 
d="M119 1544h274q198 0 288 -100q90 -101 90 -320q0 -308 -181 -398q-91 -41 -263 -41v-685h-208v1544zM327 863q129 0 178 52q50 53 50 188q0 138 -48 202t-151 64h-29v-506z" />
    <glyph glyph-name="Q" unicode="Q" horiz-adv-x="979" 
d="M936 -23l-131 -94l-106 151q-95 -53 -201 -53q-225 0 -318 190q-92 196 -92 656q0 402 90 569q90 168 305 168q226 0 318 -185q91 -181 91 -642q0 -417 -87 -579zM568 490l86 -122q21 148 21 334q0 398 -38 538q-38 135 -151 135q-106 0 -143 -115q-37 -110 -37 -444
q0 -375 38 -512q38 -131 148 -131q44 0 84 28l-132 190z" />
    <glyph glyph-name="R" unicode="R" horiz-adv-x="863" 
d="M119 1544h274q170 0 253 -81q105 -105 105 -321q0 -166 -55.5 -266.5t-158.5 -124.5l284 -751h-211l-283 756v-756h-208v1544zM327 860q121 0 171 56t50 189q0 72 -10.5 123t-33 83t-58 47t-84.5 15h-35v-513z" />
    <glyph glyph-name="S" unicode="S" horiz-adv-x="764" 
d="M634 1512v-203q-95 68 -171 68q-82 0 -134 -58q-52 -55 -52 -147q0 -81 37 -139q19 -31 62.5 -80t112.5 -118q127 -129 173 -223q46 -91 46 -223q0 -179 -101 -295q-101 -113 -259 -113q-133 0 -227 73v206q111 -81 202 -81q85 0 133 56.5t48 153.5q0 84 -37 151
q-19 32 -53 73.5t-85 92.5q-79 78 -131 138t-77 105q-48 88 -48 222q0 181 94 287q95 107 255 107q111 0 212 -53z" />
    <glyph glyph-name="T" unicode="T" horiz-adv-x="669" 
d="M-4 1544h677v-182h-233v-1362h-204v1362h-240v182z" />
    <glyph glyph-name="U" unicode="U" horiz-adv-x="948" 
d="M119 1544h204v-1091q0 -167 30 -222q31 -55 122 -55t120 48q30 49 30 199v1121h204v-1121q0 -252 -77 -341q-92 -101 -281 -101q-208 0 -293 130q-59 89 -59 342v1091z" />
    <glyph glyph-name="V" unicode="V" horiz-adv-x="757" 
d="M-4 1544h205l93 -570l16 -103l33 -224l14.5 -104l11.5 -85l10 -76q3 23 5 41t4 30l27 179l35 235l9.5 59t8.5 48l100 570h194l-303 -1544h-165z" />
    <glyph glyph-name="W" unicode="W" horiz-adv-x="1214" 
d="M3 1544h201l105 -717l17 -106q12 -86 18 -157l11 -131q1 -5 2 -18t3 -33l5 50q12 131 25.5 241t29.5 203l111 668h160l104 -649q23 -144 38.5 -267t25.5 -235q10 118 22.5 228t26.5 216l15 103l89 604h199l-273 -1544h-162l-109 667q-1 4 -5 33l-12 83l-21 154
q-2 18 -6.5 54t-9.5 91l-5 64q-2 -23 -4 -40t-3 -28q-5 -66 -8.5 -102.5t-4.5 -44.5l-21 -148l-11 -80t-6 -36l-113 -667h-167z" />
    <glyph glyph-name="X" unicode="X" horiz-adv-x="769" 
d="M14 1544h202l107 -299q63 -177 75 -259q11 51 24.5 99t28.5 96l14 45l99 318h210l-286 -760l286 -784h-210l-102 294q-31 88 -50 158t-27 124q-8 -67 -27 -128l-35 -110l-18 -58l-89 -280h-220l292 784z" />
    <glyph glyph-name="Y" unicode="Y" horiz-adv-x="791" 
d="M-4 1544h220l102 -336q5 -15 10 -33t12 -39q57 -182 78 -306q18 124 30 173l32 138l12 54l86 349h217l-269 -880v-664h-208v664z" />
    <glyph glyph-name="Z" unicode="Z" horiz-adv-x="773" 
d="M81 1544h680l-464 -1362h439v-182h-710l468 1368h-413v176z" />
    <glyph glyph-name="bracketleft" unicode="[" horiz-adv-x="723" 
d="M154 1699h491v-178h-281v-1767h281v-178h-491v2123z" />
    <glyph glyph-name="backslash" unicode="\" horiz-adv-x="923" 
d="M108 1699l923 -2123h-164l-919 2123h160z" />
    <glyph glyph-name="bracketright" unicode="]" horiz-adv-x="723" 
d="M568 -424h-491v178h281v1767h-281v178h491v-2123z" />
    <glyph glyph-name="asciicircum" unicode="^" horiz-adv-x="1158" 
d="M261 828h-214l400 722h264l401 -722h-216l-318 562z" />
    <glyph glyph-name="underscore" unicode="_" horiz-adv-x="1158" 
d="M0 -139h1158v-183h-1158v183z" />
    <glyph glyph-name="grave" unicode="`" horiz-adv-x="1158" 
d="M318 1465l137 88l169 -305l-103 -59z" />
    <glyph glyph-name="a" unicode="a" horiz-adv-x="808" 
d="M699 1035v-1035h-191v133q-41 -85 -82 -117t-108 -32q-129 0 -189 132t-60 414q0 269 60 395.5t189 126.5q118 0 190 -134v117h191zM267 522q0 -204 27 -285q28 -81 98 -81q64 0 93 84q29 90 29 277q0 188 -29 278q-29 84 -93 84q-68 0 -97 -80q-28 -74 -28 -277z" />
    <glyph glyph-name="b" unicode="b" horiz-adv-x="808" 
d="M108 1699h191v-781q20 38 41 64t41 40q40 30 104 30q66 0 114 -30.5t78.5 -94.5t45.5 -163t15 -235q0 -282 -60 -413.5t-188 -131.5q-68 0 -109 32t-82 117v-133h-191v1699zM540 512q0 211 -28 286q-27 81 -97 81q-66 0 -93 -82q-27 -81 -27 -280q0 -198 27 -280
q27 -81 93 -81q68 0 97 80q28 74 28 276z" />
    <glyph glyph-name="c" unicode="c" horiz-adv-x="585" 
d="M531 1015v-195q-40 49 -96 49q-158 0 -158 -342q0 -363 157 -363q44 0 97 39v-179q-76 -40 -154 -40q-308 0 -308 524q0 279 76 411.5t236 132.5q77 0 150 -37z" />
    <glyph glyph-name="d" unicode="d" horiz-adv-x="808" 
d="M699 1699v-1699h-191v133q-41 -85 -82 -117t-109 -32q-128 0 -188 131.5t-60 413.5q0 136 15 235t45.5 163t78.5 94.5t114 30.5q63 0 104 -30q20 -14 41 -40t41 -64v781h191zM267 522q0 -204 27 -285q28 -81 98 -81q64 0 93 84q29 90 29 277q0 188 -29 278q-29 84 -93 84
q-68 0 -97 -80q-28 -74 -28 -277z" />
    <glyph glyph-name="e" unicode="e" horiz-adv-x="755" 
d="M508 349h178q-21 -365 -300 -365q-83 0 -142.5 31t-98.5 96t-57.5 165t-18.5 238q0 274 76.5 406t236.5 132q311 0 311 -548v-24h-437q0 -332 132 -332q120 0 120 201zM498 618q-12 163 -37 214q-26 57 -84 57q-59 0 -84 -57q-25 -51 -37 -214h242z" />
    <glyph glyph-name="f" unicode="f" horiz-adv-x="502" 
d="M35 1035h96v361q0 177 52 250t181 73q56 0 130 -27v-202q-46 25 -81 25q-49 0 -69.5 -29t-20.5 -98l-1 -78v-275h162v-152h-162v-883h-191v883h-96v152z" />
    <glyph glyph-name="g" unicode="g" horiz-adv-x="809" 
d="M509 1035h192v-1068q0 -192 -38 -266q-70 -136 -281 -136q-139 0 -218 79q-80 80 -80 215l1 32h185q0 -165 123 -165q67 0 91 42q25 40 25 159v199q-61 -142 -187 -142q-130 0 -191.5 126t-61.5 394q0 284 59 419q58 129 193 129q64 0 104 -31t84 -110v124zM512 508
q0 371 -128 371q-61 0 -89 -83.5t-28 -267.5q0 -195 29 -287q30 -85 100 -85q66 0 91 76q25 71 25 276z" />
    <glyph glyph-name="h" unicode="h" horiz-adv-x="829" 
d="M108 1699h191v-783q82 136 212 136q126 0 180 -99q30 -56 30 -217v-736h-191l-1 692q0 105 -25 149t-86 44q-33 0 -55.5 -11.5t-36.5 -37t-20.5 -66.5t-6.5 -101v-669h-191v1699z" />
    <glyph glyph-name="i" unicode="i" horiz-adv-x="407" 
d="M108 1035h192v-1035h-192v1035zM198 1475q52 0 90 -38t38 -91q0 -54 -38 -92t-92 -38t-92 38q-37 37 -37 93q0 52 38 90q41 38 93 38z" />
    <glyph glyph-name="j" unicode="j" horiz-adv-x="407" 
d="M108 1035h192v-1459h-192v1459zM198 1475q52 0 90 -38t38 -91q0 -54 -38 -92t-92 -38t-92 38q-37 37 -37 93q0 52 38 90q41 38 93 38z" />
    <glyph glyph-name="k" unicode="k" horiz-adv-x="801" 
d="M108 1699h191v-1125l243 461h216l-264 -461l299 -574h-224l-270 550v-550h-191v1699z" />
    <glyph glyph-name="l" unicode="l" horiz-adv-x="408" 
d="M108 1699h191v-1699h-191v1699z" />
    <glyph glyph-name="m" unicode="m" horiz-adv-x="1251" 
d="M108 1035h191v-128q79 145 210 145q143 0 194 -145q76 145 216 145q109 0 166.5 -57.5t57.5 -169.5v-825h-192v681q0 117 -22 157q-21 41 -82 41q-69 0 -94 -42q-24 -41 -24 -156v-681h-198v681q0 55 -5.5 93t-18.5 61t-34 33.5t-52 10.5q-66 0 -94 -45t-28 -153v-681
h-191v1035z" />
    <glyph glyph-name="n" unicode="n" horiz-adv-x="829" 
d="M108 1035h191v-119q82 136 212 136q126 0 180 -99q30 -56 30 -217v-736h-191l-1 692q0 105 -25 149t-86 44q-33 0 -55.5 -11.5t-36.5 -37t-20.5 -66.5t-6.5 -101v-669h-191v1035z" />
    <glyph glyph-name="o" unicode="o" horiz-adv-x="789" 
d="M719 509q0 -525 -325 -525t-325 533q0 535 324 535q84 0 145.5 -32t101.5 -99t59.5 -169t19.5 -243zM521 514q0 204 -27 284q-27 81 -96 81q-68 0 -97 -80q-27 -80 -27 -279t27 -278q29 -80 97 -80t95 79q28 74 28 273z" />
    <glyph glyph-name="p" unicode="p" horiz-adv-x="808" 
d="M108 -424v1459h191v-134q40 85 82 118t110 33q128 0 187.5 -132.5t59.5 -414.5q0 -276 -61 -397q-60 -124 -193 -124q-64 0 -105 29q-20 14 -40 40t-40 63v-540h-191zM540 512q0 211 -28 286q-27 81 -97 81q-66 0 -94 -84q-28 -78 -28 -278t28 -278q29 -83 94 -83
q68 0 97 80q28 74 28 276z" />
    <glyph glyph-name="q" unicode="q" horiz-adv-x="808" 
d="M699 -424h-191v540q-20 -37 -40 -62.5t-41.5 -41t-47 -22t-56.5 -6.5q-133 0 -194 124q-60 124 -60 397q0 282 60 414.5t187 132.5q68 0 110 -33t82 -118v134h191v-1459zM267 522q0 -204 27 -285q28 -81 98 -81q64 0 93 84q29 90 29 277q0 188 -29 278q-29 84 -93 84
q-68 0 -97 -80q-28 -74 -28 -277z" />
    <glyph glyph-name="r" unicode="r" horiz-adv-x="547" 
d="M108 1035h191v-129q49 82 97 115t127 38v-200q-20 3 -34 3q-103 0 -147 -53q-43 -52 -43 -182v-627h-191v1035z" />
    <glyph glyph-name="s" unicode="s" horiz-adv-x="602" 
d="M508 1014v-179q-70 52 -147 52q-26 0 -48 -9t-38.5 -24.5t-26 -37t-9.5 -45.5q0 -74 134 -176q54 -42 90 -78t55 -68q39 -63 39 -159q0 -139 -81 -223q-80 -83 -215 -83q-83 0 -168 49v185q83 -62 157 -62q131 0 131 129q0 48 -24 83q-11 17 -35 39.5t-59 50.5
q-121 94 -164 158q-42 66 -42 159q0 125 77 205q78 79 203 79q88 0 171 -45z" />
    <glyph glyph-name="t" unicode="t" horiz-adv-x="455" 
d="M131 1325h191v-290h104v-152h-104v-883h-191v883h-105v152h105v290z" />
    <glyph glyph-name="u" unicode="u" horiz-adv-x="832" 
d="M108 1035h191v-692q2 -96 28.5 -137t88.5 -41q65 0 91 36q26 38 26 132v83v619h191v-619q0 -217 -32 -290q-67 -142 -278 -142q-166 0 -236 84q-70 85 -70 283v684z" />
    <glyph glyph-name="v" unicode="v" horiz-adv-x="695" 
d="M8 1035h205l75 -328q23 -100 39 -211.5t26 -243.5q6 31 6 36l23 154q13 88 51 265l69 328h185l-270 -1035h-129z" />
    <glyph glyph-name="w" unicode="w" horiz-adv-x="1039" 
d="M15 1035h202l58 -333q17 -100 30.5 -193t21.5 -181l3 -36l4 38q8 72 16.5 132.5t18.5 111.5l16 79l71 382h139l67 -382l22 -120q7 -34 13 -84.5t12 -119.5l4 -37q18 186 51 361l71 382h188l-243 -1035h-132l-79 395q-14 72 -24 147.5t-17 160.5q-1 10 -2 24t-3 33
q-6 -91 -17 -176.5t-27 -170.5l-80 -413h-132z" />
    <glyph glyph-name="x" unicode="x" horiz-adv-x="770" 
d="M8 1035h226l91 -200q16 -35 30 -73.5t25 -81.5q8 38 19 73t25 69l13 30l75 183h201l-234 -489l283 -546h-228l-91 198q-67 139 -79 222q-9 -80 -64 -204l-92 -216h-200l259 546z" />
    <glyph glyph-name="y" unicode="y" horiz-adv-x="755" 
d="M8 1035h216l152 -722l178 722h194l-423 -1459h-201l159 507z" />
    <glyph glyph-name="z" unicode="z" horiz-adv-x="691" 
d="M59 1035h601l-346 -862h328v-173h-611l358 866h-330v169z" />
    <glyph glyph-name="braceleft" unicode="{" horiz-adv-x="618" 
d="M307 634q60 -60 80 -114q21 -54 21 -150v-414l2 -49q0 -94 21 -119q23 -26 99 -26h18h39v-187h-73q-160 -2 -234.5 89t-74.5 287v413q0 84 -22 121q-22 38 -78 52q-5 2 -9 3l-8 2l-12 3v192q10 12 29 16q100 19 100 161v441q0 347 298 347l47 -1q24 0 37 -10v-186h-59
q-79 0 -100 -32q-20 -32 -20 -155v-421q0 -49 -5.5 -87.5t-17.5 -70t-31.5 -57t-46.5 -48.5z" />
    <glyph glyph-name="bar" unicode="|" horiz-adv-x="1158" 
d="M479 1544h201v-1929h-201v1929z" />
    <glyph glyph-name="braceright" unicode="}" horiz-adv-x="618" 
d="M311 639q-58 61 -81 115q-20 60 -20 150v415l-2 49q0 93 -22 118q-21 27 -98 27h-18h-39v187h73q160 2 234.5 -89t74.5 -287v-414q0 -85 21 -122q22 -37 79 -51q5 -2 9 -3l8 -2l12 -3v-192q-10 -12 -29 -16q-100 -19 -100 -162v-439q0 -347 -299 -347l-47 1q-23 0 -36 10
v186h58q79 0 100 32q21 31 21 155v420q0 103 22 156q22 58 79 106z" />
    <glyph glyph-name="asciitilde" unicode="~" horiz-adv-x="1544" 
d="M333 1333l-120 78q78 162 147 222q70 61 180 61q90 0 254 -73q150 -67 217 -67q65 0 105 31q42 30 92 114l123 -72q-36 -73 -73.5 -125t-79.5 -85.5t-89.5 -49t-104.5 -15.5q-78 0 -203 55l-124 52q-78 33 -133 33q-107 0 -191 -159z" />
    <glyph glyph-name="nonbreakingspace" unicode="&#xa0;" horiz-adv-x="424" 
 />
    <glyph glyph-name="exclamdown" unicode="&#xa1;" horiz-adv-x="571" 
d="M287 1135q50 0 86 -37q36 -36 36 -87t-36 -87t-88 -36q-51 0 -87 36t-36 88q0 51 36 87q37 36 89 36zM185 -424v1173h202v-1173h-202z" />
    <glyph glyph-name="cent" unicode="&#xa2;" 
d="M458 1444h96v-148q25 -4 48.5 -9.5t45.5 -13.5v-182q-35 27 -77 27q-83 0 -120.5 -82t-37.5 -262q0 -362 155 -362q30 0 80 21v-169q-42 -22 -86 -27v-134h-91v131q-116 31 -162 89q-101 119 -101 443q0 317 100 444q47 61 150 89v145z" />
    <glyph glyph-name="sterling" unicode="&#xa3;" 
d="M635 699v-142h-176q13 -49 13 -111q0 -131 -52 -235q106 -58 142 -58q48 0 73 70l168 -54q-70 -190 -215 -190q-87 0 -215 68q-62 32 -100 32q-51 0 -71 -68l-157 63q15 82 67 131q52 51 124 51q8 0 29 -3q42 82 42 156q0 68 -31 148h-191v142h137q-5 10 -7.5 16t-3.5 8
l-11 24q-111 241 -111 410q0 191 102 299t282 108q146 0 226.5 -77.5t90.5 -228.5l-162 -76q0 214 -161 214q-85 0 -139 -57q-53 -56 -53 -146q0 -151 117 -419l20 -44q1 -3 4.5 -10.5t8.5 -20.5h210z" />
    <glyph glyph-name="currency" unicode="&#xa4;" horiz-adv-x="1544" 
d="M103 295l225 224q-114 150 -114 328q0 169 112 323l-227 227l116 116l226 -226q163 114 332 114q170 0 327 -112l225 223l115 -116l-223 -223q113 -164 113 -328q0 -166 -112 -323l227 -227l-115 -115l-226 225q-155 -114 -329 -114q-166 0 -332 112l-225 -223zM777 1214
q-156 0 -264 -108q-108 -107 -108 -261q0 -152 108 -260t259 -108q152 0 259 108q108 108 108 260q0 150 -107 260q-106 109 -255 109z" />
    <glyph glyph-name="yen" unicode="&#xa5;" 
d="M831 982v-127h-225l-37 -120h262v-127h-284v-608h-208v608h-314v127h288l-44 120h-244v127h197l-206 562h221l102 -336q5 -15 10 -33t12 -39q57 -182 78 -306q18 124 30 173l32 138l90 405h225l-172 -564h187z" />
    <glyph glyph-name="brokenbar" unicode="&#xa6;" horiz-adv-x="1158" 
d="M479 1544h201v-779h-201v779zM479 355h201v-740h-201v740z" />
    <glyph glyph-name="section" unicode="&#xa7;" 
d="M741 1374h-174l-2 11q-21 183 -140 183q-59 0 -98 -54t-39 -138q0 -79 40 -134q40 -56 147 -123l109.5 -72.5t62.5 -46.5q40 -34 68 -86q56 -107 56 -281q0 -149 -51 -255q-50 -107 -137 -143l-12 -5l15 -11q146 -105 146 -308q0 -150 -86 -245q-86 -96 -221 -96
q-283 0 -314 355l-1 15h173l1 -13q12 -206 140 -206q62 0 101 55q39 54 39 142q0 86 -45 145q-44 59 -155 119q-51 26 -84.5 46.5t-53.5 35.5q-39 30 -70 76q-79 121 -79 308q0 154 59 267q38 74 152 138q-98 95 -133 162q-35 75 -35 171q0 144 86 239q87 94 222 94
q140 0 218.5 -83.5t92.5 -246.5zM600 615q0 335 -178 335q-82 0 -128.5 -82t-46.5 -227q0 -309 177 -309q176 0 176 283z" />
    <glyph glyph-name="dieresis" unicode="&#xa8;" horiz-adv-x="1159" 
d="M406 1429q47 0 81 -34t34 -82t-34 -82t-83 -34q-48 0 -82 34t-34 83q0 48 34 81q34 34 84 34zM757 1429q46 0 80 -34t34 -82t-34 -82t-82 -34q-24 0 -45.5 9t-37 25t-24.5 37.5t-9 45.5q0 48 34 81q34 34 84 34z" />
    <glyph glyph-name="copyright" unicode="&#xa9;" horiz-adv-x="1753" 
d="M1043 1215v-142l-22 10q-47 21 -77 21q-82 0 -120.5 -82t-38.5 -259q0 -318 166 -318q27 0 70 17q2 2 22 10v-144l-8 -4q-51 -27 -111 -27q-307 0 -307 460q0 490 303 490q54 0 123 -32zM888 1574q283 0 507 -192q134 -114 207 -274q74 -166 74 -336q0 -332 -234 -566
t-564 -234q-331 0 -566 234t-235 565q0 338 235 570q236 233 576 233zM886 1460q-286 0 -486 -200q-199 -199 -199 -489q0 -283 198 -485q199 -202 478 -202q280 0 477 201q198 202 198 487q0 282 -197 485t-469 203z" />
    <glyph glyph-name="ordfeminine" unicode="&#xaa;" horiz-adv-x="619" 
d="M78 641v119h463v-119h-463zM496 837h-141v29l-9 -5q-61 -34 -91 -34q-15 0 -54 17q-34 19 -50 37q-64 70 -64 311t64 311q16 18 50 37q39 17 54 17q30 0 91 -34l9 -5v29h141v-710zM362 1200q0 64 -3.5 108.5t-11 72t-19.5 39.5t-30 12q-67 0 -67 -219q0 -144 15 -202
t51 -58q37 0 51 53q7 29 10.5 77t3.5 117z" />
    <glyph glyph-name="guillemotleft" unicode="&#xab;" horiz-adv-x="755" 
d="M678 939l-235 -398l213 -409l-90 -50l-245 459l265 454zM428 939l-236 -398l220 -409l-96 -50l-239 459l259 454z" />
    <glyph glyph-name="logicalnot" unicode="&#xac;" horiz-adv-x="1158" 
d="M880 0v430h-803v188h1004v-618h-201z" />
    <glyph glyph-name="softhyphen" unicode="&#xad;" horiz-adv-x="364" 
d="M0 608h364v-156h-364v156z" />
    <glyph glyph-name="registered" unicode="&#xae;" horiz-adv-x="1753" 
d="M640 1235h185q237 0 237 -249q0 -91 -34.5 -155t-92.5 -82l178 -440h-164l-149 373v-373h-160v926zM800 839q58 2 82 31t24 97q0 39 -5.5 65.5t-17.5 42.5t-32.5 23t-50.5 7v-266zM888 1574q283 0 507 -192q134 -114 207 -274q74 -166 74 -336q0 -332 -234 -566
t-564 -234q-331 0 -566 234t-235 565q0 338 235 570q236 233 576 233zM886 1460q-286 0 -486 -200q-199 -199 -199 -489q0 -283 198 -485q199 -202 478 -202q280 0 477 201q198 202 198 487q0 282 -197 485t-469 203z" />
    <glyph glyph-name="macron" unicode="&#xaf;" horiz-adv-x="1156" 
d="M326 1241v144h505v-144h-505z" />
    <glyph glyph-name="macron" unicode="&#x2c9;" horiz-adv-x="1156" 
d="M326 1241v144h505v-144h-505z" />
    <glyph glyph-name="degree" unicode="&#xb0;" horiz-adv-x="880" 
d="M445 1560q145 0 249 -104q105 -104 105 -246q0 -146 -105 -249q-105 -102 -253 -102q-149 0 -254 102q-105 103 -105 248q0 147 105 249q106 102 258 102zM442 1408q-83 0 -141 -58q-57 -57 -57 -140q0 -82 57 -140q58 -58 139 -58t138 58q58 58 58 140q0 80 -57 139
t-137 59z" />
    <glyph glyph-name="plusminus" unicode="&#xb1;" 
d="M63 704v171h275v271h173v-271h274v-171h-274v-273h-173v273h-275zM63 209v170h722v-170h-722z" />
    <glyph glyph-name="twosuperior" unicode="&#xb2;" horiz-adv-x="586" 
d="M224 1232h-144v46q-1 147 49 213q49 64 167 64q223 0 223 -231q0 -152 -162 -437l-77 -135l-7 -14h236v-120h-447l143 280q51 97 83.5 165.5t49.5 113.5q34 83 34 151q0 105 -77 105q-73 0 -73 -132q0 -16 0.5 -33t1.5 -36z" />
    <glyph glyph-name="threesuperior" unicode="&#xb3;" horiz-adv-x="586" 
d="M230 1285h-140v31q0 126 48 183.5t153 57.5q213 0 213 -247q0 -95 -21 -143q-21 -47 -73 -71q29 -12 49 -29t32.5 -42t18 -60t5.5 -83q0 -275 -236 -275q-207 0 -207 224v12v9q0 8 1 10h139q-3 -26 -3 -37q0 -95 74 -95q46 0 65 37t19 125q0 81 -24.5 115t-84.5 34
q-9 0 -19.5 -1t-21.5 -3v123h26q72 0 97 28t25 111q0 134 -69 134q-67 0 -67 -112v-14v-10q0 -9 1 -12z" />
    <glyph glyph-name="acute" unicode="&#xb4;" horiz-adv-x="1158" 
d="M840 1465l-203 -276l-103 59l169 305z" />
    <glyph glyph-name="mu" unicode="&#xb5;" horiz-adv-x="832" 
d="M299 -424h-191v1459h191v-656l2 -36q0 -96 26.5 -137t88.5 -41q65 0 91 36q26 38 26 132v83v619h191v-619q0 -217 -32 -290q-67 -142 -257 -142q-83 0 -159 36z" />
    <glyph glyph-name="paragraph" unicode="&#xb6;" 
d="M268 -228v1011h-32q-105 -1 -170 98q-64 97 -64 264q0 197 80 298t237 101h528v-177h-87v-1595h-174v1595h-144v-1595h-174z" />
    <glyph glyph-name="periodcentered" unicode="&#xb7;" horiz-adv-x="424" 
d="M215 896q49 0 85 -37q36 -36 36 -87t-36 -87q-38 -35 -87 -35q-26 0 -48.5 9.5t-39.5 26t-26.5 39t-9.5 48.5q0 51 36 87q37 36 90 36z" />
    <glyph glyph-name="cedilla" unicode="&#xb8;" horiz-adv-x="1158" 
d="M622 -104l135 -66l-175 -271l-88 46z" />
    <glyph glyph-name="onesuperior" unicode="&#xb9;" horiz-adv-x="585" 
d="M158 1544h238v-926h-142v806h-96v120z" />
    <glyph glyph-name="ordmasculine" unicode="&#xba;" horiz-adv-x="619" 
d="M78 641v119h463v-119h-463zM528 1183q0 -355 -213 -355q-223 0 -223 365q0 363 222 363q214 0 214 -373zM383 1189q0 232 -71 232q-76 0 -76 -234q0 -224 75 -224q72 0 72 226z" />
    <glyph glyph-name="guillemotright" unicode="&#xbb;" horiz-adv-x="755" 
d="M77 939l92 56l264 -454l-244 -459l-90 50l213 409zM327 939l92 56l259 -454l-239 -459l-96 50l220 409z" />
    <glyph glyph-name="onequarter" unicode="&#xbc;" horiz-adv-x="1460" 
d="M158 1544h238v-926h-142v806h-96v120zM1049 1544h127l-765 -1544h-128zM1200 926h135v-568h61v-108h-61v-250h-138v250h-267v113zM1197 358v337l-145 -337h145z" />
    <glyph glyph-name="onehalf" unicode="&#xbd;" horiz-adv-x="1461" 
d="M158 1544h238v-926h-142v806h-96v120zM1049 1544h127l-765 -1544h-128zM1100 615h-145v45q-1 147 49 213q49 64 168 64q222 0 222 -230q0 -153 -161 -437l-77 -136l-7 -14h236v-120h-447q14 30 49.5 99l92.5 181q51 97 84 165.5t50 113.5q34 83 34 151q0 105 -77 105
q-73 0 -73 -132q0 -16 0.5 -32.5t1.5 -35.5z" />
    <glyph glyph-name="threequarters" unicode="&#xbe;" horiz-adv-x="1461" 
d="M230 1285h-140v31q0 126 48 183.5t153 57.5q213 0 213 -247q0 -95 -21 -143q-21 -47 -73 -71q29 -12 49 -29t32.5 -42t18 -60t5.5 -83q0 -275 -236 -275q-207 0 -207 224v12v9q0 8 1 10h139q-3 -26 -3 -37q0 -95 74 -95q46 0 65 37t19 125q0 81 -24.5 115t-84.5 34
q-9 0 -19.5 -1t-21.5 -3v123h26q72 0 97 28t25 111q0 134 -69 134q-67 0 -67 -112v-14v-10q0 -9 1 -12zM1051 1544h127l-766 -1544h-127zM1202 926h134v-568h62v-108h-62v-250h-137v250h-267v113zM1199 358v337l-145 -337h145z" />
    <glyph glyph-name="questiondown" unicode="&#xbf;" horiz-adv-x="763" 
d="M306 760h182v-465h-46q-93 1 -125 -52t-32 -205q0 -172 24 -239q26 -68 87 -68q90 0 90 170v61h185v-58q-1 -91 -17 -156t-49.5 -106.5t-86 -61t-126.5 -19.5q-166 0 -233 102q-66 102 -66 354q0 230 45 319q46 89 168 97v327zM400 1135q50 0 86 -37q36 -36 36 -87
t-37 -87q-36 -36 -87 -36t-88 36q-36 36 -36 88q0 53 37 87q37 36 89 36z" />
    <glyph glyph-name="Agrave" unicode="&#xc0;" horiz-adv-x="835" 
d="M339 1544h162l331 -1544h-206l-58 301h-306l-59 -301h-200zM538 462l-46 246q-46 251 -75 536q-14 -139 -36 -281.5t-52 -302.5l-38 -198h247zM305 1978l215 -210l-74 -85l-250 175z" />
    <glyph glyph-name="Aacute" unicode="&#xc1;" horiz-adv-x="835" 
d="M339 1544h162l331 -1544h-206l-58 301h-306l-59 -301h-200zM538 462l-46 246q-46 251 -75 536q-14 -139 -36 -281.5t-52 -302.5l-38 -198h247zM528 1978l109 -120l-250 -175l-74 85z" />
    <glyph glyph-name="Acircumflex" unicode="&#xc2;" horiz-adv-x="835" 
d="M339 1544h162l331 -1544h-206l-58 301h-306l-59 -301h-200zM538 462l-46 246q-46 251 -75 536q-14 -139 -36 -281.5t-52 -302.5l-38 -198h247zM417 2002l257 -211l-86 -108l-171 144l-171 -144l-83 96z" />
    <glyph glyph-name="Atilde" unicode="&#xc3;" horiz-adv-x="835" 
d="M339 1544h162l331 -1544h-206l-58 301h-306l-59 -301h-200zM538 462l-46 246q-46 251 -75 536q-14 -139 -36 -281.5t-52 -302.5l-38 -198h247zM564 1895h121q0 -97 -41 -150.5t-113 -53.5q-39 0 -115 40q-61 31 -92 31q-37 0 -41 -57h-118q0 46 10.5 84.5t29.5 65.5
t46 42t60 15q34 0 127 -42q65 -31 91 -31q35 0 35 56z" />
    <glyph glyph-name="Adieresis" unicode="&#xc4;" horiz-adv-x="835" 
d="M339 1544h162l331 -1544h-206l-58 301h-306l-59 -301h-200zM538 462l-46 246q-46 251 -75 536q-14 -139 -36 -281.5t-52 -302.5l-38 -198h247zM230 1928q46 0 79 -34q33 -33 33 -80t-34 -81q-33 -33 -80 -33t-81 33q-33 34 -33 82q0 47 34 80t82 33zM613 1928
q46 0 79 -34q33 -33 33 -80t-34 -81q-33 -33 -80 -33t-81 33q-33 34 -33 82q0 47 34 80t82 33z" />
    <glyph glyph-name="Aring" unicode="&#xc5;" horiz-adv-x="835" 
d="M339 1544h162l331 -1544h-206l-58 301h-306l-59 -301h-200zM538 462l-46 246q-46 251 -75 536q-14 -139 -36 -281.5t-52 -302.5l-38 -198h247zM421 2014q67 0 117 -50q49 -49 49 -119t-50 -120q-49 -49 -119 -49q-71 0 -120 49t-49 121q0 69 50 119q49 49 122 49z
M419 1910q-27 0 -46.5 -19t-19.5 -45q0 -27 19 -46t46 -19q26 0 45 19t19 45q0 27 -18.5 46t-44.5 19z" />
    <glyph glyph-name="AE" unicode="&#xc6;" horiz-adv-x="1183" 
d="M331 1544h512l39 -176h-337l107 -491h305l40 -176h-305l119 -525h329l40 -176h-536l-62 304h-320l-57 -304h-202zM553 460l-73 352q-33 157 -57 376l-6 62q-5 -97 -22 -217t-45 -272l-18 -92l-39 -209h260z" />
    <glyph glyph-name="Ccedilla" unicode="&#xc7;" horiz-adv-x="781" 
d="M725 1519v-187q-80 39 -134 39q-74 0 -127 -36.5t-87.5 -112.5t-51 -192.5t-16.5 -275.5q0 -572 293 -572q51 0 123 32v-191q-75 -42 -168 -42q-469 0 -469 766q0 414 114.5 616t350.5 202q87 0 172 -46zM455 -97l135 -66l-175 -271l-88 46z" />
    <glyph glyph-name="Egrave" unicode="&#xc8;" horiz-adv-x="744" 
d="M119 1544h553v-176h-345v-489h306v-176h-306v-527h345v-176h-553v1544zM305 1978l215 -210l-74 -85l-250 175z" />
    <glyph glyph-name="Eacute" unicode="&#xc9;" horiz-adv-x="744" 
d="M119 1544h553v-176h-345v-489h306v-176h-306v-527h345v-176h-553v1544zM503 1978l109 -120l-250 -175l-74 85z" />
    <glyph glyph-name="Ecircumflex" unicode="&#xca;" horiz-adv-x="744" 
d="M119 1544h553v-176h-345v-489h306v-176h-306v-527h345v-176h-553v1544zM394 2002l257 -211l-86 -108l-171 144l-171 -144l-83 96z" />
    <glyph glyph-name="Edieresis" unicode="&#xcb;" horiz-adv-x="744" 
d="M119 1544h553v-176h-345v-489h306v-176h-306v-527h345v-176h-553v1544zM206 1928q46 0 79 -34q33 -33 33 -80t-34 -81q-33 -33 -80 -33t-81 33q-33 34 -33 82q0 47 34 80t82 33zM589 1928q46 0 79 -34q33 -33 33 -80t-34 -81q-33 -33 -80 -33t-81 33q-33 34 -33 82
q0 47 34 80t82 33z" />
    <glyph glyph-name="Ntilde" unicode="&#xd1;" horiz-adv-x="958" 
d="M119 1544h194l207 -616q90 -261 159 -557q-25 179 -37 324t-12 273v576h209v-1544h-195l-233 695q-32 97 -60.5 199t-52.5 214q-2 14 -6.5 34l-10.5 46l5 -44.5t3 -31.5l11 -157l11 -191q1 -16 1.5 -39t0.5 -52l11 -673h-205v1544zM618 1895h121q0 -97 -41 -150.5
t-113 -53.5q-39 0 -115 40q-61 31 -92 31q-37 0 -41 -57h-118q0 46 10.5 84.5t29.5 65.5t46 42t60 15q34 0 127 -42q65 -31 91 -31q35 0 35 56z" />
    <glyph glyph-name="Odieresis" unicode="&#xd6;" horiz-adv-x="979" 
d="M892 734q0 -409 -91 -581t-305 -172q-225 0 -317 185q-91 181 -91 643q0 412 90 583q91 172 308 172q194 0 288 -133q62 -89 90 -253q28 -152 28 -444zM674 712q0 401 -36 532q-36 132 -147 132t-148 -121q-36 -122 -36 -490q0 -339 38 -470q39 -124 146 -124
q105 0 144 116q39 115 39 425zM302 1928q46 0 79 -34q33 -33 33 -80t-34 -81q-33 -33 -80 -33t-81 33q-33 34 -33 82q0 47 34 80t82 33zM685 1928q46 0 79 -34q33 -33 33 -80t-34 -81q-33 -33 -80 -33t-81 33q-33 34 -33 82q0 47 34 80t82 33z" />
    <glyph glyph-name="Udieresis" unicode="&#xdc;" horiz-adv-x="948" 
d="M119 1544h204v-1091q0 -167 30 -222q31 -55 122 -55t120 48q30 49 30 199v1121h204v-1121q0 -252 -77 -341q-92 -101 -281 -101q-208 0 -293 130q-59 89 -59 342v1091zM285 1928q46 0 79 -34q33 -33 33 -80t-34 -81q-33 -33 -80 -33t-81 33q-33 34 -33 82q0 47 34 80
t82 33zM668 1928q46 0 79 -34q33 -33 33 -80t-34 -81q-33 -33 -80 -33t-81 33q-33 34 -33 82q0 47 34 80t82 33z" />
    <glyph glyph-name="aacute" unicode="&#xe1;" horiz-adv-x="808" 
d="M699 1035v-1035h-191v133q-41 -85 -82 -117t-108 -32q-129 0 -189 132t-60 414q0 269 60 395.5t189 126.5q118 0 190 -134v117h191zM267 522q0 -204 27 -285q28 -81 98 -81q64 0 93 84q29 90 29 277q0 188 -29 278q-29 84 -93 84q-68 0 -97 -80q-28 -74 -28 -277z
M622 1465l-203 -276l-103 59l169 305z" />
    <glyph glyph-name="agrave" unicode="&#xe0;" horiz-adv-x="808" 
d="M699 1035v-1035h-191v133q-41 -85 -82 -117t-108 -32q-129 0 -189 132t-60 414q0 269 60 395.5t189 126.5q118 0 190 -134v117h191zM267 522q0 -204 27 -285q28 -81 98 -81q64 0 93 84q29 90 29 277q0 188 -29 278q-29 84 -93 84q-68 0 -97 -80q-28 -74 -28 -277z
M208 1465l137 88l169 -305l-103 -59z" />
    <glyph glyph-name="acircumflex" unicode="&#xe2;" horiz-adv-x="808" 
d="M699 1035v-1035h-191v133q-41 -85 -82 -117t-108 -32q-129 0 -189 132t-60 414q0 269 60 395.5t189 126.5q118 0 190 -134v117h191zM267 522q0 -204 27 -285q28 -81 98 -81q64 0 93 84q29 90 29 277q0 188 -29 278q-29 84 -93 84q-68 0 -97 -80q-28 -74 -28 -277z
M410 1554l253 -286l-96 -79l-160 170l-148 -170l-107 79z" />
    <glyph glyph-name="adieresis" unicode="&#xe4;" horiz-adv-x="808" 
d="M699 1035v-1035h-191v133q-41 -85 -82 -117t-108 -32q-129 0 -189 132t-60 414q0 269 60 395.5t189 126.5q118 0 190 -134v117h191zM267 522q0 -204 27 -285q28 -81 98 -81q64 0 93 84q29 90 29 277q0 188 -29 278q-29 84 -93 84q-68 0 -97 -80q-28 -74 -28 -277z
M232 1429q47 0 81 -34t34 -82t-34 -82t-83 -34q-48 0 -82 34t-34 83q0 48 34 81q34 34 84 34zM583 1429q46 0 80 -34t34 -82t-34 -82t-82 -34q-24 0 -45.5 9t-37 25t-24.5 37.5t-9 45.5q0 48 34 81q34 34 84 34z" />
    <glyph glyph-name="atilde" unicode="&#xe3;" horiz-adv-x="808" 
d="M699 1035v-1035h-191v133q-41 -85 -82 -117t-108 -32q-129 0 -189 132t-60 414q0 269 60 395.5t189 126.5q118 0 190 -134v117h191zM267 522q0 -204 27 -285q28 -81 98 -81q64 0 93 84q29 90 29 277q0 188 -29 278q-29 84 -93 84q-68 0 -97 -80q-28 -74 -28 -277z
M554 1408h117q-5 -56 -15.5 -95t-28.5 -63t-45 -35t-65 -11q-42 0 -94 27l-50 24q-29 15 -55 15q-36 0 -44 -56h-120q15 202 155 202q56 0 134 -45q41 -23 70 -23q32 0 41 60z" />
    <glyph glyph-name="aring" unicode="&#xe5;" horiz-adv-x="808" 
d="M699 1035v-1035h-191v133q-41 -85 -82 -117t-108 -32q-129 0 -189 132t-60 414q0 269 60 395.5t189 126.5q118 0 190 -134v117h191zM267 522q0 -204 27 -285q28 -81 98 -81q64 0 93 84q29 90 29 277q0 188 -29 278q-29 84 -93 84q-68 0 -97 -80q-28 -74 -28 -277z
M410 1504q67 0 115 -50q49 -49 49 -117q0 -69 -49 -118q-50 -48 -118 -48q-69 0 -118 48q-48 49 -48 119q0 69 49 117q49 49 120 49zM409 1409q-29 0 -49.5 -20.5t-20.5 -48.5q0 -29 20 -49.5t49 -20.5t49.5 20t20.5 49q0 28 -20.5 49t-48.5 21z" />
    <glyph glyph-name="ccedilla" unicode="&#xe7;" horiz-adv-x="585" 
d="M531 1015v-195q-40 49 -96 49q-158 0 -158 -342q0 -363 157 -363q44 0 97 39v-179q-76 -40 -154 -40q-308 0 -308 524q0 279 76 411.5t236 132.5q77 0 150 -37zM323 -104l135 -66l-175 -271l-88 46z" />
    <glyph glyph-name="eacute" unicode="&#xe9;" horiz-adv-x="755" 
d="M508 349h178q-21 -365 -300 -365q-83 0 -142.5 31t-98.5 96t-57.5 165t-18.5 238q0 274 76.5 406t236.5 132q311 0 311 -548v-24h-437q0 -332 132 -332q120 0 120 201zM498 618q-12 163 -37 214q-26 57 -84 57q-59 0 -84 -57q-25 -51 -37 -214h242zM595 1465l-203 -276
l-103 59l169 305z" />
    <glyph glyph-name="egrave" unicode="&#xe8;" horiz-adv-x="755" 
d="M508 349h178q-21 -365 -300 -365q-83 0 -142.5 31t-98.5 96t-57.5 165t-18.5 238q0 274 76.5 406t236.5 132q311 0 311 -548v-24h-437q0 -332 132 -332q120 0 120 201zM498 618q-12 163 -37 214q-26 57 -84 57q-59 0 -84 -57q-25 -51 -37 -214h242zM181 1465l137 88
l169 -305l-103 -59z" />
    <glyph glyph-name="ecircumflex" unicode="&#xea;" horiz-adv-x="755" 
d="M508 349h178q-21 -365 -300 -365q-83 0 -142.5 31t-98.5 96t-57.5 165t-18.5 238q0 274 76.5 406t236.5 132q311 0 311 -548v-24h-437q0 -332 132 -332q120 0 120 201zM498 618q-12 163 -37 214q-26 57 -84 57q-59 0 -84 -57q-25 -51 -37 -214h242zM384 1554l253 -286
l-96 -79l-160 170l-148 -170l-107 79z" />
    <glyph glyph-name="edieresis" unicode="&#xeb;" horiz-adv-x="755" 
d="M508 349h178q-21 -365 -300 -365q-83 0 -142.5 31t-98.5 96t-57.5 165t-18.5 238q0 274 76.5 406t236.5 132q311 0 311 -548v-24h-437q0 -332 132 -332q120 0 120 201zM498 618q-12 163 -37 214q-26 57 -84 57q-59 0 -84 -57q-25 -51 -37 -214h242zM211 1429q47 0 81 -34
t34 -82t-34 -82t-83 -34q-48 0 -82 34t-34 83q0 48 34 81q34 34 84 34zM562 1429q46 0 80 -34t34 -82t-34 -82t-82 -34q-24 0 -45.5 9t-37 25t-24.5 37.5t-9 45.5q0 48 34 81q34 34 84 34z" />
    <glyph glyph-name="iacute" unicode="&#xed;" horiz-adv-x="408" 
d="M108 1035h191v-1035h-191v1035zM437 1465l-203 -276l-103 59l169 305z" />
    <glyph glyph-name="igrave" unicode="&#xec;" horiz-adv-x="408" 
d="M108 1035h191v-1035h-191v1035zM-23 1465l137 88l169 -305l-103 -59z" />
    <glyph glyph-name="icircumflex" unicode="&#xee;" horiz-adv-x="407" 
d="M108 1035h191v-1035h-191v1035zM210 1554l253 -286l-96 -79l-160 170l-148 -170l-107 79z" />
    <glyph glyph-name="idieresis" unicode="&#xef;" horiz-adv-x="407" 
d="M108 1035h191v-1035h-191v1035zM51 1429q47 0 81 -34t34 -82t-34 -82t-83 -34q-48 0 -81 34q-34 34 -34 83q0 48 34 81q34 34 83 34zM361 1429q46 0 80 -34t34 -82t-34 -82t-82 -34q-24 0 -45.5 9t-37.5 25t-25 37.5t-9 45.5q0 48 34 81q34 34 85 34z" />
    <glyph glyph-name="ntilde" unicode="&#xf1;" horiz-adv-x="829" 
d="M108 1035h191v-119q82 136 212 136q126 0 180 -99q30 -56 30 -217v-736h-191l-1 692q0 105 -25 149t-86 44q-33 0 -55.5 -11.5t-36.5 -37t-20.5 -66.5t-6.5 -101v-669h-191v1035zM558 1408h117q-5 -56 -15.5 -95t-28.5 -63t-45 -35t-65 -11q-42 0 -94 27l-50 24
q-29 15 -55 15q-36 0 -44 -56h-120q15 202 155 202q56 0 134 -45q41 -23 70 -23q32 0 41 60z" />
    <glyph glyph-name="oacute" unicode="&#xf3;" horiz-adv-x="789" 
d="M719 509q0 -525 -325 -525t-325 533q0 535 324 535q84 0 145.5 -32t101.5 -99t59.5 -169t19.5 -243zM521 514q0 204 -27 284q-27 81 -96 81q-68 0 -97 -80q-27 -80 -27 -279t27 -278q29 -80 97 -80t95 79q28 74 28 273zM612 1465l-203 -276l-103 59l169 305z" />
    <glyph glyph-name="ograve" unicode="&#xf2;" horiz-adv-x="789" 
d="M719 509q0 -525 -325 -525t-325 533q0 535 324 535q84 0 145.5 -32t101.5 -99t59.5 -169t19.5 -243zM521 514q0 204 -27 284q-27 81 -96 81q-68 0 -97 -80q-27 -80 -27 -279t27 -278q29 -80 97 -80t95 79q28 74 28 273zM206 1465l137 88l169 -305l-103 -59z" />
    <glyph glyph-name="ocircumflex" unicode="&#xf4;" horiz-adv-x="789" 
d="M719 509q0 -525 -325 -525t-325 533q0 535 324 535q84 0 145.5 -32t101.5 -99t59.5 -169t19.5 -243zM521 514q0 204 -27 284q-27 81 -96 81q-68 0 -97 -80q-27 -80 -27 -279t27 -278q29 -80 97 -80t95 79q28 74 28 273zM401 1554l253 -286l-96 -79l-160 170l-148 -170
l-107 79z" />
    <glyph glyph-name="odieresis" unicode="&#xf6;" horiz-adv-x="789" 
d="M719 509q0 -525 -325 -525t-325 533q0 535 324 535q84 0 145.5 -32t101.5 -99t59.5 -169t19.5 -243zM521 514q0 204 -27 284q-27 81 -96 81q-68 0 -97 -80q-27 -80 -27 -279t27 -278q29 -80 97 -80t95 79q28 74 28 273zM223 1429q47 0 81 -34t34 -82t-34 -82t-83 -34
q-48 0 -82 34t-34 83q0 48 34 81q34 34 84 34zM574 1429q46 0 80 -34t34 -82t-34 -82t-82 -34q-24 0 -45.5 9t-37 25t-24.5 37.5t-9 45.5q0 48 34 81q34 34 84 34z" />
    <glyph glyph-name="otilde" unicode="&#xf5;" horiz-adv-x="789" 
d="M719 509q0 -525 -325 -525t-325 533q0 535 324 535q84 0 145.5 -32t101.5 -99t59.5 -169t19.5 -243zM521 514q0 204 -27 284q-27 81 -96 81q-68 0 -97 -80q-27 -80 -27 -279t27 -278q29 -80 97 -80t95 79q28 74 28 273zM545 1408h117q-5 -56 -15.5 -95t-28.5 -63t-45 -35
t-65 -11q-42 0 -94 27l-50 24q-29 15 -55 15q-36 0 -44 -56h-120q15 202 155 202q56 0 134 -45q41 -23 70 -23q32 0 41 60z" />
    <glyph glyph-name="uacute" unicode="&#xfa;" horiz-adv-x="832" 
d="M108 1035h191v-692q2 -96 28.5 -137t88.5 -41q65 0 91 36q26 38 26 132v83v619h191v-619q0 -217 -32 -290q-67 -142 -278 -142q-166 0 -236 84q-70 85 -70 283v684zM634 1465l-203 -276l-103 59l169 305z" />
    <glyph glyph-name="ugrave" unicode="&#xf9;" horiz-adv-x="832" 
d="M108 1035h191v-692q2 -96 28.5 -137t88.5 -41q65 0 91 36q26 38 26 132v83v619h191v-619q0 -217 -32 -290q-67 -142 -278 -142q-166 0 -236 84q-70 85 -70 283v684zM228 1465l137 88l169 -305l-103 -59z" />
    <glyph glyph-name="ucircumflex" unicode="&#xfb;" horiz-adv-x="832" 
d="M108 1035h191v-692q2 -96 28.5 -137t88.5 -41q65 0 91 36q26 38 26 132v83v619h191v-619q0 -217 -32 -290q-67 -142 -278 -142q-166 0 -236 84q-70 85 -70 283v684zM422 1554l253 -286l-96 -79l-160 170l-148 -170l-107 79z" />
    <glyph glyph-name="udieresis" unicode="&#xfc;" horiz-adv-x="832" 
d="M108 1035h191v-692q2 -96 28.5 -137t88.5 -41q65 0 91 36q26 38 26 132v83v619h191v-619q0 -217 -32 -290q-67 -142 -278 -142q-166 0 -236 84q-70 85 -70 283v684zM245 1429q47 0 81 -34t34 -82t-34 -82t-83 -34q-48 0 -82 34t-34 83q0 48 34 81q34 34 84 34zM596 1429
q46 0 80 -34t34 -82t-34 -82t-82 -34q-24 0 -45.5 9t-37 25t-24.5 37.5t-9 45.5q0 48 34 81q34 34 84 34z" />
    <glyph glyph-name="germandbls" unicode="&#xdf;" horiz-adv-x="845" 
d="M299 0h-191v1372q0 196 71 282q72 85 240 85q84 0 145 -21t100.5 -65.5t58 -114t18.5 -165.5q0 -259 -145 -317q112 -34 145 -125q34 -84 34 -360q0 -347 -62 -460t-248 -113q-10 0 -28 0.5t-46 1.5v177q2 -1 7 -1h7h12q89 0 118 75q30 75 30 298q0 261 -35 342
q-34 76 -159 76v174l25 -1q40 0 68.5 11.5t46 37t25.5 66t8 98.5q0 107 -28.5 153t-94.5 46q-68 0 -95 -48t-27 -173v-1331z" />
    <glyph glyph-name="trademark" unicode="&#x2122;" horiz-adv-x="1150" 
d="M-10 1544h439v-118h-146v-762h-143v762h-150v118zM531 1544h125l87 -359q11 -45 20 -89.5t17 -90.5l7 -46l8 46q7 45 12.5 75.5t9.5 48.5l14 62l78 353h126l91 -880h-142l-33 517l-111 -517h-101l-78 332q-14 58 -27 135l-11 63l-34 -530h-139z" />
    <glyph glyph-name="notequal" unicode="&#x2260;" horiz-adv-x="1158" 
d="M624 1061l126 258l135 -59l-97 -199h293v-180h-375l-97 -199h472v-180h-554l-124 -254l-134 59l93 195h-285v180h368l97 199h-465v180h547z" />
    <glyph glyph-name="Oslash" unicode="&#xd8;" horiz-adv-x="979" 
d="M835 1583l118 -64l-115 -230q53 -223 53 -528q0 -127 -6 -222.5t-17 -168.5q-22 -144 -75 -233q-93 -156 -291 -156q-188 0 -289 128l-81 -163l-115 61l126 252q-56 188 -56 566q0 404 90 571q91 168 309 168q178 0 277 -123zM630 1252q-27 124 -143 124
q-110 0 -146 -115q-35 -120 -35 -467q0 -78 2 -143t6 -117zM344 291q43 -118 151 -118q102 0 139 112q38 119 38 412l-6 273v38z" />
    <glyph glyph-name="infinity" unicode="&#x221e;" horiz-adv-x="1544" 
d="M777 655q-167 -228 -377 -228q-157 0 -258 101q-100 100 -100 262q0 157 101 258q104 101 258 101q207 0 368 -227q158 227 377 227q158 0 257 -101q100 -100 100 -261q0 -159 -100 -259q-99 -101 -254 -101q-215 0 -372 228zM873 788q121 -190 250 -190q77 0 130 54
q52 52 52 136q0 79 -53 135q-52 55 -131 55q-125 0 -248 -190zM672 788q-121 190 -250 190q-78 0 -130 -55q-51 -54 -51 -135t52 -136q52 -54 131 -54q125 0 248 190z" />
    <glyph glyph-name="lessequal" unicode="&#x2264;" horiz-adv-x="1158" 
d="M1081 1446v-192l-790 -353l790 -353v-191l-1004 455v173zM1081 290v-188h-1004v188h1004z" />
    <glyph glyph-name="greaterequal" unicode="&#x2265;" horiz-adv-x="1158" 
d="M77 357v191l790 354l-790 352v192l1004 -462v-172zM77 102v188h1004v-188h-1004z" />
    <glyph glyph-name="partialdiff" unicode="&#x2202;" horiz-adv-x="1158" 
d="M185 1372l26 177q231 -30 372 -97q147 -64 263 -192q250 -268 250 -679q0 -263 -128 -421q-149 -183 -387 -183q-213 0 -366 153q-152 155 -152 370q0 210 140 359q139 147 342 147q99 0 178 -35q74 -35 149 -120l-18 42q-29 66 -60.5 118.5t-63.5 91.5q-65 78 -167 139
q-106 59 -184 87q-72 28 -194 43zM588 856q-135 0 -228 -106q-93 -107 -93 -260q0 -148 92 -255q91 -106 221 -106q131 0 221 108t90 266q0 151 -86 252t-217 101z" />
    <glyph glyph-name="summation" unicode="&#x2211;" horiz-adv-x="1544" 
d="M1398 1737v-542h-182l-19 354h-911l583 -926l-583 -1014h933l11 351h190v-538h-1359v209l573 992l-573 907v207h1337z" />
    <glyph glyph-name="product" unicode="&#x220f;" horiz-adv-x="1638" 
d="M87 1737h1464v-187h-186v-1941h186v-187h-576v187h189v1941h-690v-1941h187v-187h-574v187h186v1941h-186v187z" />
    <glyph glyph-name="pi" unicode="&#x3c0;" horiz-adv-x="1393" 
d="M244 0v929h-173v181h1252v-181h-171v-929h-201v929h-506v-929h-201z" />
    <glyph glyph-name="integral" unicode="&#x222b;" horiz-adv-x="1158" 
d="M194 -553l41 178q59 -22 110 -22q107 0 125 96q4 23 6 70t2 119v1345q0 262 27 333q66 171 288 171q76 0 170 -25l-41 -178q-69 23 -109 23q-84 0 -114 -59q-19 -37 -19 -196l-1 -126v-1250q0 -220 -13 -279q-12 -72 -59 -125q-84 -97 -261 -97q-90 0 -152 22z" />
    <glyph glyph-name="Omega" unicode="&#x2126;" horiz-adv-x="1544" 
d="M66 0v188h385q-385 229 -385 656q0 314 203 526t503 212q301 0 504 -212t203 -526q0 -427 -384 -656h384v-188h-611v168q102 58 176 125.5t122.5 148t72 174t23.5 203.5q0 242 -142 408q-143 167 -345 167q-211 0 -352 -165q-140 -164 -140 -412q0 -428 395 -649v-168
h-612z" />
    <glyph glyph-name="ae" unicode="&#xe6;" horiz-adv-x="1170" 
d="M120 806v194q104 52 208 52q95 0 151 -30q55 -30 94 -103q79 133 223 133q304 0 304 -500l-1 -75h-427q0 -90 7.5 -153.5t23 -104t40.5 -59t61 -18.5q52 0 83 47.5t31 126.5q0 7 -0.5 16t-1.5 22h183q-5 -96 -25 -166t-56.5 -115.5t-90 -67t-125.5 -21.5q-181 0 -247 161
q-39 -88 -91 -125q-53 -36 -138 -36q-257 0 -257 323q0 360 255 360q105 0 163 -67q-2 37 -3.5 59t-1.5 29q0 94 -39.5 136t-127.5 42q-98 0 -195 -60zM500 324q0 193 -120 193t-120 -179q0 -201 118 -201q122 0 122 187zM907 616v47q1 231 -115 231q-117 0 -117 -230l2 -48
h230z" />
    <glyph glyph-name="oslash" unicode="&#xf8;" horiz-adv-x="789" 
d="M672 1070l100 -64l-94 -169q42 -116 42 -344q0 -509 -325 -509q-135 0 -211 84l-70 -101l-97 67l95 151q-42 169 -42 344q0 270 78 396.5t244 126.5q124 0 216 -86zM488 804q-20 75 -95 75q-63 0 -92 -74q-27 -74 -27 -247l3 -135zM304 227q25 -79 97 -79q67 0 93 74
q26 80 26 270l-2 125z" />
    <glyph glyph-name="radical" unicode="&#x221a;" horiz-adv-x="1544" 
d="M1544 1921v-187h-444l-471 -1734h-254l-176 677h-199v187h363l75 -275q10 -41 30 -156l22 -136l6 -34h15q52 289 90 442l86 323l240 893h617z" />
    <glyph glyph-name="florin" unicode="&#x192;" horiz-adv-x="879" 
d="M258 950l15 81h125l50 287q36 202 67 263q67 135 237 135q63 0 126 -27l-34 -194q-47 24 -82 24q-54 0 -75 -36q-21 -34 -44 -166l-50 -286h158l-15 -81h-158l-136 -772q-20 -115 -40 -193t-39 -120q-77 -170 -262 -170q-56 0 -129 26l30 176q48 -16 86 -16q66 0 96 56
q30 55 62 235l137 778h-125z" />
    <glyph glyph-name="approxequal" unicode="&#x2248;" horiz-adv-x="1158" 
d="M137 805l-116 76q66 149 142 213q76 66 184 66q84 0 254 -75q157 -69 218 -69q63 0 107 32q43 31 93 117l119 -70q-35 -72 -72.5 -124t-79.5 -84q-79 -64 -192 -64q-81 0 -201 55l-125 54q-88 35 -138 35q-108 0 -193 -162zM137 398l-116 75q68 152 143 215q76 66 182 66
q85 0 255 -75q152 -70 220 -70q61 0 105 32q43 31 93 117l119 -70q-36 -72 -73.5 -123.5t-79 -84.5t-89 -48.5t-102.5 -15.5q-81 0 -201 55l-125 54q-83 36 -137 36q-109 0 -194 -163z" />
    <glyph glyph-name="Delta" unicode="&#x2206;" horiz-adv-x="1544" 
d="M57 0l603 1544h217l609 -1544h-1429zM345 187h850l-426 1113z" />
    <glyph glyph-name="Otilde" unicode="&#xd5;" horiz-adv-x="979" 
d="M892 734q0 -409 -91 -581t-305 -172q-225 0 -317 185q-91 181 -91 643q0 412 90 583q91 172 308 172q194 0 288 -133q62 -89 90 -253q28 -152 28 -444zM674 712q0 401 -36 532q-36 132 -147 132t-148 -121q-36 -122 -36 -490q0 -339 38 -470q39 -124 146 -124
q105 0 144 116q39 115 39 425zM644 1895h121q0 -97 -41 -150.5t-113 -53.5q-39 0 -115 40q-61 31 -92 31q-37 0 -41 -57h-118q0 46 10.5 84.5t29.5 65.5t46 42t60 15q34 0 127 -42q65 -31 91 -31q35 0 35 56z" />
    <glyph glyph-name="OE" unicode="&#x152;" horiz-adv-x="1306" 
d="M672 1544h536v-176h-342v-489h314v-176h-314v-527h352v-176h-537v121q-80 -140 -233 -140q-190 0 -275 184q-85 179 -85 596q0 439 82 618q83 185 274 185q83 0 135 -32t93 -107v119zM670 762q0 372 -35 498q-34 121 -143 121q-105 0 -148 -138q-43 -130 -43 -469
q0 -338 43 -468q43 -136 148 -136q107 0 142 117q36 118 36 475z" />
    <glyph glyph-name="oe" unicode="&#x153;" horiz-adv-x="1213" 
d="M962 349h176q0 -164 -83 -265q-82 -100 -219 -100q-82 0 -131 31q-50 31 -94 111q-38 -80 -88 -111q-49 -31 -135 -31q-164 0 -241.5 133t-77.5 414q0 521 324 521q157 0 221 -139q67 139 223 139q306 0 306 -547v-26h-436l1 -33q4 -80 13.5 -136.5t25.5 -92.5t39 -52.5
t55 -16.5q121 0 121 201zM521 513q0 190 -30.5 278t-96.5 88t-96.5 -87.5t-30.5 -274.5q0 -186 30.5 -273.5t96.5 -87.5q127 0 127 357zM947 611q0 282 -120 282q-117 0 -117 -232v-50h237z" />
    <glyph glyph-name="divide" unicode="&#xf7;" 
d="M63 704v171h722v-171h-722zM304 512q0 48 35 83q38 35 85 35q49 0 84 -35t35 -85q0 -47 -35 -85q-35 -35 -84 -35q-50 0 -85 35q-35 38 -35 87zM304 1069q0 48 35 83q38 35 85 35q49 0 84 -35t35 -84q0 -50 -35 -85t-84 -35q-50 0 -85 35q-35 38 -35 86z" />
    <glyph glyph-name="lozenge" unicode="&#x25ca;" horiz-adv-x="1544" 
d="M772 1605l602 -832l-602 -832l-601 832zM772 1258l-353 -485l353 -485l353 485z" />
    <glyph glyph-name="ydieresis" unicode="&#xff;" horiz-adv-x="755" 
d="M8 1035h216l152 -722l178 722h194l-423 -1459h-201l159 507zM206 1429q47 0 81 -34t34 -82t-34 -82t-83 -34q-48 0 -82 34t-34 83q0 48 34 81q34 34 84 34zM557 1429q46 0 80 -34t34 -82t-34 -82t-82 -34q-24 0 -45.5 9t-37 25t-24.5 37.5t-9 45.5q0 48 34 81
q34 34 84 34z" />
    <glyph glyph-name="Ydieresis" unicode="&#x178;" horiz-adv-x="791" 
d="M-4 1544h220l102 -336q5 -15 10 -33t12 -39q57 -182 78 -306q18 124 30 173l32 138l12 54l86 349h217l-269 -880v-664h-208v664zM206 1928q46 0 79 -34q33 -33 33 -80t-34 -81q-33 -33 -80 -33t-81 33q-33 34 -33 82q0 47 34 80t82 33zM589 1928q46 0 79 -34
q33 -33 33 -80t-34 -81q-33 -33 -80 -33t-81 33q-33 34 -33 82q0 47 34 80t82 33z" />
    <glyph glyph-name="divisionslash" unicode="&#x2215;" horiz-adv-x="291" 
d="M465 1544h127l-765 -1544h-127z" />
    <glyph glyph-name="Iacute" unicode="&#xcd;" horiz-adv-x="446" 
d="M119 1544h208v-1544h-208v1544zM343 1978l109 -120l-250 -175l-74 85z" />
    <glyph glyph-name="Icircumflex" unicode="&#xce;" horiz-adv-x="446" 
d="M119 1544h208v-1544h-208v1544zM224 2002l257 -211l-87 -108l-170 144l-172 -144l-82 96z" />
    <glyph glyph-name="Idieresis" unicode="&#xcf;" horiz-adv-x="446" 
d="M119 1544h208v-1544h-208v1544zM73 1928q46 0 79 -34q33 -33 33 -80t-34 -81q-33 -33 -80 -33t-80 33q-33 34 -33 82q0 47 34 80q33 33 81 33zM376 1928q46 0 79 -34q34 -33 34 -80t-34 -81q-33 -33 -80 -33q-24 0 -45 9t-36.5 24.5t-24.5 36.5t-9 45q0 47 34 80t82 33z
" />
    <glyph glyph-name="Igrave" unicode="&#xcc;" horiz-adv-x="446" 
d="M119 1544h208v-1544h-208v1544zM108 1978l215 -210l-74 -85l-250 175z" />
    <glyph glyph-name="Oacute" unicode="&#xd3;" horiz-adv-x="979" 
d="M892 734q0 -409 -91 -581t-305 -172q-225 0 -317 185q-91 181 -91 643q0 412 90 583q91 172 308 172q194 0 288 -133q62 -89 90 -253q28 -152 28 -444zM674 712q0 401 -36 532q-36 132 -147 132t-148 -121q-36 -122 -36 -490q0 -339 38 -470q39 -124 146 -124
q105 0 144 116q39 115 39 425zM605 1978l109 -120l-250 -175l-74 85z" />
    <glyph glyph-name="Ocircumflex" unicode="&#xd4;" horiz-adv-x="979" 
d="M892 734q0 -409 -91 -581t-305 -172q-225 0 -317 185q-91 181 -91 643q0 412 90 583q91 172 308 172q194 0 288 -133q62 -89 90 -253q28 -152 28 -444zM674 712q0 401 -36 532q-36 132 -147 132t-148 -121q-36 -122 -36 -490q0 -339 38 -470q39 -124 146 -124
q105 0 144 116q39 115 39 425zM491 1982l257 -211l-86 -108l-171 144l-171 -144l-83 96z" />
    <glyph glyph-name="Ograve" unicode="&#xd2;" horiz-adv-x="979" 
d="M892 734q0 -409 -91 -581t-305 -172q-225 0 -317 185q-91 181 -91 643q0 412 90 583q91 172 308 172q194 0 288 -133q62 -89 90 -253q28 -152 28 -444zM674 712q0 401 -36 532q-36 132 -147 132t-148 -121q-36 -122 -36 -490q0 -339 38 -470q39 -124 146 -124
q105 0 144 116q39 115 39 425zM376 1978l215 -210l-74 -85l-250 175z" />
    <glyph glyph-name="Uacute" unicode="&#xda;" horiz-adv-x="948" 
d="M119 1544h204v-1091q0 -167 30 -222q31 -55 122 -55t120 48q30 49 30 199v1121h204v-1121q0 -252 -77 -341q-92 -101 -281 -101q-208 0 -293 130q-59 89 -59 342v1091zM584 1978l109 -120l-250 -175l-74 85z" />
    <glyph glyph-name="Ucircumflex" unicode="&#xdb;" horiz-adv-x="948" 
d="M119 1544h204v-1091q0 -167 30 -222q31 -55 122 -55t120 48q30 49 30 199v1121h204v-1121q0 -252 -77 -341q-92 -101 -281 -101q-208 0 -293 130q-59 89 -59 342v1091zM476 2002l257 -211l-86 -108l-171 144l-171 -144l-83 96z" />
    <glyph glyph-name="Ugrave" unicode="&#xd9;" horiz-adv-x="948" 
d="M119 1544h204v-1091q0 -167 30 -222q31 -55 122 -55t120 48q30 49 30 199v1121h204v-1121q0 -252 -77 -341q-92 -101 -281 -101q-208 0 -293 130q-59 89 -59 342v1091zM371 1978l215 -210l-74 -85l-250 175z" />
    <glyph glyph-name="dotlessi" unicode="&#x131;" horiz-adv-x="408" 
d="M108 1035h191v-1035h-191v1035z" />
    <glyph glyph-name="circumflex" unicode="&#x2c6;" horiz-adv-x="1158" 
d="M582 1554l253 -286l-96 -79l-160 170l-148 -170l-107 79z" />
    <glyph glyph-name="tilde" unicode="&#x2dc;" horiz-adv-x="1158" 
d="M720 1408h117q-5 -56 -15.5 -95t-28.5 -63t-45 -35t-65 -11q-42 0 -94 27l-50 24q-29 15 -55 15q-36 0 -44 -56h-120q15 202 155 202q56 0 134 -45q41 -23 70 -23q32 0 41 60z" />
    <glyph glyph-name="breve" unicode="&#x2d8;" horiz-adv-x="1158" 
d="M705 1461h128q-14 -267 -250 -267q-239 0 -258 267h127q8 -146 129 -146q109 0 124 146z" />
    <glyph glyph-name="dotaccent" unicode="&#x2d9;" horiz-adv-x="1159" 
d="M581 1441q49 0 84 -36q36 -36 36 -86q0 -51 -36 -87q-35 -35 -86 -35t-87 36q-35 38 -35 87q0 50 36 85q36 36 88 36z" />
    <glyph glyph-name="ring" unicode="&#x2da;" horiz-adv-x="1157" 
d="M581 1504q67 0 115 -50q49 -49 49 -117q0 -69 -49 -118q-50 -48 -118 -48q-69 0 -118 48q-48 49 -48 119q0 69 49 117q49 49 120 49zM580 1409q-29 0 -49.5 -20.5t-20.5 -48.5q0 -29 20 -49.5t49 -20.5t49.5 20t20.5 49q0 28 -20.5 49t-48.5 21z" />
    <glyph glyph-name="hungarumlaut" unicode="&#x2dd;" horiz-adv-x="1158" 
d="M669 1478l-179 -289l-92 50l141 315zM931 1478l-178 -289l-92 50l141 315z" />
    <glyph glyph-name="ogonek" unicode="&#x2db;" horiz-adv-x="1158" 
d="M593 0h113q-100 -90 -100 -167q0 -71 79 -71q55 0 99 19v-119q-56 -21 -111 -21q-88 0 -139 43t-51 118q0 90 110 198z" />
    <glyph glyph-name="caron" unicode="&#x2c7;" horiz-adv-x="1158" 
d="M582 1189l-258 286l107 79l148 -170l160 170l96 -79z" />
    <glyph glyph-name="Scaron" unicode="&#x160;" horiz-adv-x="764" 
d="M634 1512v-203q-95 68 -171 68q-82 0 -134 -58q-52 -55 -52 -147q0 -81 37 -139q19 -31 62.5 -80t112.5 -118q127 -129 173 -223q46 -91 46 -223q0 -179 -101 -295q-101 -113 -259 -113q-133 0 -227 73v206q111 -81 202 -81q85 0 133 56.5t48 153.5q0 84 -37 151
q-19 32 -53 73.5t-85 92.5q-79 78 -131 138t-77 105q-48 88 -48 222q0 181 94 287q95 107 255 107q111 0 212 -53zM405 1683l-257 212l86 107l171 -143l171 143l84 -95z" />
    <glyph glyph-name="Zcaron" unicode="&#x17d;" horiz-adv-x="773" 
d="M81 1544h680l-464 -1362h439v-182h-710l468 1368h-413v176zM420 1683l-257 212l86 107l171 -143l171 143l84 -95z" />
    <glyph glyph-name="scaron" unicode="&#x161;" horiz-adv-x="602" 
d="M508 1014v-179q-70 52 -147 52q-26 0 -48 -9t-38.5 -24.5t-26 -37t-9.5 -45.5q0 -74 134 -176q54 -42 90 -78t55 -68q39 -63 39 -159q0 -139 -81 -223q-80 -83 -215 -83q-83 0 -168 49v185q83 -62 157 -62q131 0 131 129q0 48 -24 83q-11 17 -35 39.5t-59 50.5
q-121 94 -164 158q-42 66 -42 159q0 125 77 205q78 79 203 79q88 0 171 -45zM307 1189l-258 286l107 79l148 -170l160 170l96 -79z" />
    <glyph glyph-name="zcaron" unicode="&#x17e;" horiz-adv-x="691" 
d="M59 1035h601l-346 -862h328v-173h-611l358 866h-330v169zM364 1189l-258 286l107 79l148 -170l160 170l96 -79z" />
    <glyph glyph-name="Lslash" unicode="&#x141;" horiz-adv-x="678" 
d="M584 1070v-199l-257 -198v-497h340v-176h-548v550l-119 -96v199l119 95v796h208v-672z" />
    <glyph glyph-name="lslash" unicode="&#x142;" horiz-adv-x="445" 
d="M445 1085v-176l-127 -108v-801h-191v696l-127 -103v175l127 104v827h191v-722z" />
    <glyph glyph-name="Eth" unicode="&#xd0;" horiz-adv-x="953" 
d="M119 1544h256q117 0 197 -26q74 -25 132 -89q85 -94 123 -250q19 -81 28.5 -186.5t9.5 -241.5q0 -254 -41 -415q-40 -154 -132 -235q-113 -101 -405 -101h-168v764h-116v161h116v619zM327 181q190 0 254 115q66 115 66 448q0 357 -63 491t-232 134h-25v-444h201v-161
h-201v-583z" />
    <glyph glyph-name="eth" unicode="&#xf0;" horiz-adv-x="791" 
d="M86 1582l105 123q106 -74 192 -161l173 124l76 -114l-165 -113q254 -320 254 -910q0 -141 -19.5 -244.5t-59.5 -170.5t-101 -99.5t-145 -32.5q-168 0 -247.5 129.5t-79.5 405.5q0 272 79 401.5t244 129.5q28 0 69 -6q-38 158 -134 300l-178 -122l-73 107l173 119
q-51 48 -91.5 81t-71.5 53zM523 510q0 211 -28 286q-27 81 -96 81q-68 0 -96 -81q-27 -80 -27 -280q0 -199 27 -280q29 -80 96 -80t96 80q28 74 28 274z" />
    <glyph glyph-name="Yacute" unicode="&#xdd;" horiz-adv-x="791" 
d="M-4 1544h220l102 -336q5 -15 10 -33t12 -39q57 -182 78 -306q18 124 30 173l32 138l12 54l86 349h217l-269 -880v-664h-208v664zM542 1978l109 -120l-250 -175l-74 85z" />
    <glyph glyph-name="yacute" unicode="&#xfd;" horiz-adv-x="755" 
d="M8 1035h216l152 -722l178 722h194l-423 -1459h-201l159 507zM625 1465l-203 -276l-103 59l169 305z" />
    <glyph glyph-name="Thorn" unicode="&#xde;" horiz-adv-x="812" 
d="M119 1544h208v-216h66q198 0 288 -100q90 -101 90 -320q0 -310 -181 -398q-86 -42 -263 -42v-468h-208v1544zM327 647q129 0 178 52q50 53 50 188q0 138 -48 202t-151 64l-29 -1v-505z" />
    <glyph glyph-name="thorn" unicode="&#xfe;" horiz-adv-x="808" 
d="M108 -424v2123h191v-798q40 85 82 118t110 33q128 0 187.5 -132.5t59.5 -414.5q0 -276 -61 -397q-60 -124 -193 -124q-64 0 -105 29q-20 14 -40 40t-40 63v-540h-191zM540 512q0 211 -28 286q-27 81 -97 81q-66 0 -94 -84q-28 -78 -28 -278t28 -278q29 -83 94 -83
q68 0 97 80q28 74 28 276z" />
    <glyph glyph-name="minus" unicode="&#x2212;" horiz-adv-x="880" 
d="M80 704v171h722v-171h-722z" />
    <glyph glyph-name="multiply" unicode="&#xd7;" 
d="M98 1004l121 121l206 -206l205 205l120 -120l-206 -205l206 -206l-121 -121l-205 206l-206 -205l-119 119l205 206z" />
    <glyph glyph-name="Gbreve" unicode="&#x11e;" horiz-adv-x="955" 
d="M489 812h378v-60q0 -451 -79 -609q-78 -162 -292 -162q-221 0 -315 180q-93 180 -93 605q0 486 102 647q96 151 295 151q152 0 237 -73q86 -74 134 -243l-194 -81q-13 61 -29 102.5t-35 64.5q-38 47 -114 47q-104 0 -142 -128q-38 -134 -38 -481q0 -351 39 -475t147 -124
q99 0 139 88q41 94 41 302v42v31h-181v176zM624 1936h127q-6 -66 -24.5 -112.5t-51.5 -76t-82.5 -43t-116.5 -13.5q-245 0 -268 245h127q21 -116 147 -116q119 0 142 116z" />
    <glyph glyph-name="gbreve" unicode="&#x11f;" horiz-adv-x="809" 
d="M509 1035h192v-1068q0 -192 -38 -266q-70 -136 -281 -136q-139 0 -218 79q-80 80 -80 215l1 32h185q0 -165 123 -165q67 0 91 42q25 40 25 159v199q-61 -142 -187 -142q-130 0 -191.5 126t-61.5 394q0 284 59 419q58 129 193 129q64 0 104 -31t84 -110v124zM512 508
q0 371 -128 371q-61 0 -89 -83.5t-28 -267.5q0 -195 29 -287q30 -85 100 -85q66 0 91 76q25 71 25 276zM533 1461h128q-14 -267 -250 -267q-239 0 -258 267h127q8 -146 129 -146q109 0 124 146z" />
    <glyph glyph-name="Idotaccent" unicode="&#x130;" horiz-adv-x="446" 
d="M119 1544h208v-1544h-208v1544zM225 1940q48 0 83 -36q35 -35 35 -84q0 -51 -36 -85q-35 -35 -84 -35q-50 0 -85 35q-35 38 -35 86q0 49 35 84q38 35 87 35z" />
    <glyph glyph-name="Scommaaccent" unicode="&#x218;" horiz-adv-x="764" 
d="M634 1512v-203q-95 68 -171 68q-82 0 -134 -58q-52 -55 -52 -147q0 -81 37 -139q19 -31 62.5 -80t112.5 -118q127 -129 173 -223q46 -91 46 -223q0 -179 -101 -295q-101 -113 -259 -113q-133 0 -227 73v206q111 -81 202 -81q85 0 133 56.5t48 153.5q0 84 -37 151
q-19 32 -53 73.5t-85 92.5q-79 78 -131 138t-77 105q-48 88 -48 222q0 181 94 287q95 107 255 107q111 0 212 -53zM467 -322l-77 -168l-76 20l55 168l-8 40h-47v152h153v-212z" />
    <glyph glyph-name="Cacute" unicode="&#x106;" horiz-adv-x="781" 
d="M725 1519v-187q-80 39 -134 39q-74 0 -127 -36.5t-87.5 -112.5t-51 -192.5t-16.5 -275.5q0 -572 293 -572q51 0 123 32v-191q-75 -42 -168 -42q-469 0 -469 766q0 414 114.5 616t350.5 202q87 0 172 -46zM632 1978l109 -120l-250 -175l-74 85z" />
    <glyph glyph-name="cacute" unicode="&#x107;" horiz-adv-x="585" 
d="M531 1015v-195q-40 49 -96 49q-158 0 -158 -342q0 -363 157 -363q44 0 97 39v-179q-76 -40 -154 -40q-308 0 -308 524q0 279 76 411.5t236 132.5q77 0 150 -37zM578 1465l-204 -276l-102 59l168 305z" />
    <glyph glyph-name="Ccaron" unicode="&#x10c;" horiz-adv-x="781" 
d="M725 1519v-187q-80 39 -134 39q-74 0 -127 -36.5t-87.5 -112.5t-51 -192.5t-16.5 -275.5q0 -572 293 -572q51 0 123 32v-191q-75 -42 -168 -42q-469 0 -469 766q0 414 114.5 616t350.5 202q87 0 172 -46zM502 1683l-257 212l87 107l170 -143l172 143l83 -95z" />
    <glyph glyph-name="ccaron" unicode="&#x10d;" horiz-adv-x="585" 
d="M532 1015v-195q-40 49 -96 49q-158 0 -158 -342q0 -363 157 -363q44 0 97 39v-179q-76 -40 -154 -40q-308 0 -308 524q0 279 76 411.5t236 132.5q77 0 150 -37zM359 1189l-258 286l107 79l148 -170l159 170l97 -79z" />
    <glyph glyph-name="Iecyrillic" unicode="&#x415;" horiz-adv-x="808" 
d="M802 1433v-136h-103v-1297h-191v133q-41 -85 -82 -117t-109 -32q-128 0 -188 131.5t-60 413.5q0 136 15 235t45.5 163t78.5 94.5t114 30.5q63 0 104 -30q20 -14 41 -40t41 -64v379h-209v136h209v266h191v-266h103zM267 522q0 -204 27 -285q28 -81 98 -81q64 0 93 84
q29 90 29 277q0 188 -29 278q-29 84 -93 84q-68 0 -97 -80q-28 -74 -28 -277z" />
    <glyph glyph-name="fee" horiz-adv-x="835" 
d="M421 2014q67 0 117 -50q49 -49 49 -119t-50 -120q-49 -49 -119 -49q-71 0 -120 49t-49 121q0 69 50 119q49 49 122 49zM419 1910q-27 0 -46.5 -19t-19.5 -45q0 -27 19 -46t46 -19q26 0 45 19t19 45q0 27 -18.5 46t-44.5 19z" />
    <glyph glyph-name="judge" horiz-adv-x="781" 
d="M455 -97l135 -66l-175 -271l-88 46z" />
    <glyph glyph-name="Dieresis" horiz-adv-x="744" 
d="M206 1928q46 0 79 -34q33 -33 33 -80t-34 -81q-33 -33 -80 -33t-81 33q-33 34 -33 82q0 47 34 80t82 33zM589 1928q46 0 79 -34q33 -33 33 -80t-34 -81q-33 -33 -80 -33t-81 33q-33 34 -33 82q0 47 34 80t82 33z" />
    <glyph glyph-name="Acute" horiz-adv-x="744" 
d="M503 1978l109 -120l-250 -175l-74 85z" />
    <glyph glyph-name="Grave" horiz-adv-x="744" 
d="M305 1978l215 -210l-74 -85l-250 175z" />
    <glyph glyph-name="sure" horiz-adv-x="744" 
d="M394 2002l257 -211l-86 -108l-171 144l-171 -144l-83 96z" />
    <glyph glyph-name="eat" horiz-adv-x="446" 
d="M73 1928q46 0 79 -34q33 -33 33 -80t-34 -81q-33 -33 -80 -33t-80 33q-33 34 -33 82q0 47 34 80q33 33 81 33zM376 1928q46 0 79 -34q34 -33 34 -80t-34 -81q-33 -33 -80 -33q-24 0 -45 9t-36.5 24.5t-24.5 36.5t-9 45q0 47 34 80t82 33z" />
    <glyph glyph-name="ice" horiz-adv-x="446" 
d="M224 2002l257 -211l-87 -108l-170 144l-172 -144l-82 96z" />
    <glyph glyph-name="hung" horiz-adv-x="958" 
d="M618 1895h121q0 -97 -41 -150.5t-113 -53.5q-39 0 -115 40q-61 31 -92 31q-37 0 -41 -57h-118q0 46 10.5 84.5t29.5 65.5t46 42t60 15q34 0 127 -42q65 -31 91 -31q35 0 35 56z" />
    <glyph glyph-name="Caron" horiz-adv-x="773" 
d="M420 1683l-257 212l86 107l171 -143l171 143l84 -95z" />
    <glyph glyph-name="uniE770" horiz-adv-x="407" 
d="M51 1429q47 0 81 -34t34 -82t-34 -82t-83 -34q-48 0 -81 34q-34 34 -34 83q0 48 34 81q34 34 83 34zM361 1429q46 0 80 -34t34 -82t-34 -82t-82 -34q-24 0 -45.5 9t-37.5 25t-25 37.5t-9 45.5q0 48 34 81q34 34 85 34z" />
    <glyph glyph-name="bulletoperator" unicode="&#x2219;" horiz-adv-x="424" 
d="M215 896q49 0 85 -37q36 -36 36 -87t-36 -87q-38 -35 -87 -35q-26 0 -48.5 9.5t-39.5 26t-26.5 39t-9.5 48.5q0 51 36 87q37 36 90 36z" />
    <glyph glyph-name="Euro" unicode="&#x20ac;" 
d="M749 1353q-168 0 -292 -115q-125 -116 -135 -255h327v-127h-549v69q0 265 191 453q194 188 458 188v-213zM749 -18q-266 0 -458 186q-191 188 -191 453v69h549v-127h-327q12 -149 147 -266q122 -104 280 -104v-211z" />
    <glyph glyph-name="uniE004" horiz-adv-x="1184" 
d="M866 479q57 0 104.5 21.5t84.5 58.5q-28 -73 -76 -134.5t-110.5 -106.5t-138 -70t-157.5 -25q-72 0 -137.5 19t-122.5 52.5t-103.5 80.5t-80.5 104h82v316h2l244 -316h133v512h-133v-311h-2l-244 311h-82q34 58 80.5 105t103.5 80.5t122.5 52t137.5 18.5
q82 0 157.5 -24.5t138 -68.5t110 -105.5t74.5 -135.5q-72 78 -187 78h-188v-512h188zM811 879h31q63 0 104 -37.5t41 -106.5q0 -37 -11.5 -63.5t-32 -44t-47 -25.5t-56.5 -8h-29v285z" />
    <glyph glyph-name="scommaaccent" unicode="&#x219;" horiz-adv-x="602" 
d="M508 1014v-179q-70 52 -147 52q-26 0 -48 -9t-38.5 -24.5t-26 -37t-9.5 -45.5q0 -74 134 -176q54 -42 90 -78t55 -68q39 -63 39 -159q0 -139 -81 -223q-80 -83 -215 -83q-83 0 -168 49v185q83 -62 157 -62q131 0 131 129q0 48 -24 83q-11 17 -35 39.5t-59 50.5
q-121 94 -164 158q-42 66 -42 159q0 125 77 205q78 79 203 79q88 0 171 -45zM392 -322l-77 -168l-76 20l55 168l-8 40h-47v152h153v-212z" />
    <glyph glyph-name="Omegagreek" unicode="&#x3a9;" horiz-adv-x="1544" 
d="M66 0v188h385q-385 229 -385 656q0 314 203 526t503 212q301 0 504 -212t203 -526q0 -427 -384 -656h384v-188h-611v168q102 58 176 125.5t122.5 148t72 174t23.5 203.5q0 242 -142 408q-143 167 -345 167q-211 0 -352 -165q-140 -164 -140 -412q0 -428 395 -649v-168
h-612z" />
    <glyph glyph-name="Deltagreek" unicode="&#x394;" horiz-adv-x="1544" 
d="M57 0l603 1544h217l609 -1544h-1429zM345 187h850l-426 1113z" />
    <glyph glyph-name="ash" horiz-adv-x="408" 
d="M290 1332l-77 -168l-76 20l55 168l-8 40h-47v152h153v-212z" />
    <glyph glyph-name="uni20A0" 
d="M749 1353q-168 0 -292 -115q-125 -116 -135 -255h327v-127h-549v69q0 265 191 453q194 188 458 188v-213zM749 -18q-266 0 -458 186q-191 188 -191 453v69h549v-127h-327q12 -149 147 -266q122 -104 280 -104v-211z" />
    <glyph glyph-name="nonmarkingreturn" horiz-adv-x="0" 
 />
    <glyph glyph-name="uniF6C3" horiz-adv-x="408" 
d="M290 -322l-77 -168l-76 20l55 168l-8 40h-47v152h153v-212z" />
    <glyph glyph-name="uniE784" horiz-adv-x="408" 
d="M127 1412l77 168l76 -20l-55 -168l8 -40h47v-152h-153v212z" />
    <glyph glyph-name="kick" horiz-adv-x="446" 
d="M225 1940q48 0 83 -36q35 -35 35 -84q0 -51 -36 -85q-35 -35 -84 -35q-50 0 -85 35q-35 38 -35 86q0 49 35 84q38 35 87 35z" />
    <glyph glyph-name="yea" horiz-adv-x="955" 
d="M624 1936h127q-6 -66 -24.5 -112.5t-51.5 -76t-82.5 -43t-116.5 -13.5q-245 0 -268 245h127q21 -116 147 -116q119 0 142 116z" />
    <glyph glyph-name="uniE003" horiz-adv-x="809" 
d="M509 1035h192v-1068q0 -192 -38 -266q-70 -136 -281 -136q-139 0 -218 79q-80 80 -80 215l1 32h185q0 -165 123 -165q67 0 91 42q25 40 25 159v199q-61 -142 -187 -142q-130 0 -191.5 126t-61.5 394q0 284 59 419q58 129 193 129q64 0 104 -31t84 -110v124zM512 508
q0 371 -128 371q-61 0 -89 -83.5t-28 -267.5q0 -195 29 -287q30 -85 100 -85q66 0 91 76q25 71 25 276zM541 1461h127q-3 -71 -20 -121.5t-49 -83t-80.5 -47.5t-115.5 -15q-127 0 -189.5 63.5t-73.5 203.5h128q9 -146 139 -146q65 0 95 33t39 113z" />
    <glyph glyph-name="Sacute" unicode="&#x15a;" horiz-adv-x="764" 
d="M634 1512v-203q-95 68 -171 68q-82 0 -134 -58q-52 -55 -52 -147q0 -81 37 -139q19 -31 62.5 -80t112.5 -118q127 -129 173 -223q46 -91 46 -223q0 -179 -101 -295q-101 -113 -259 -113q-133 0 -227 73v206q111 -81 202 -81q85 0 133 56.5t48 153.5q0 84 -37 151
q-19 32 -53 73.5t-85 92.5q-79 78 -131 138t-77 105q-48 88 -48 222q0 181 94 287q95 107 255 107q111 0 212 -53zM503 1978l109 -120l-250 -175l-74 85z" />
    <glyph glyph-name="Tcaron" unicode="&#x164;" horiz-adv-x="669" 
d="M-4 1544h677v-182h-233v-1362h-204v1362h-240v182zM346 1683l-257 212l86 107l171 -143l171 143l84 -95z" />
    <glyph glyph-name="Zacute" unicode="&#x179;" horiz-adv-x="773" 
d="M81 1544h680l-464 -1362h439v-182h-710l468 1368h-413v176zM505 1978l109 -120l-250 -175l-74 85z" />
    <glyph glyph-name="sacute" unicode="&#x15b;" horiz-adv-x="602" 
d="M508 1014v-179q-70 52 -147 52q-26 0 -48 -9t-38.5 -24.5t-26 -37t-9.5 -45.5q0 -74 134 -176q54 -42 90 -78t55 -68q39 -63 39 -159q0 -139 -81 -223q-80 -83 -215 -83q-83 0 -168 49v185q83 -62 157 -62q131 0 131 129q0 48 -24 83q-11 17 -35 39.5t-59 50.5
q-121 94 -164 158q-42 66 -42 159q0 125 77 205q78 79 203 79q88 0 171 -45zM509 1465l-203 -276l-103 59l169 305z" />
    <glyph glyph-name="tcaron" unicode="&#x165;" horiz-adv-x="679" 
d="M131 1325h191v-290h104v-152h-104v-883h-191v883h-105v152h105v290zM655 1332l-77 -168l-76 20l55 168l-8 40h-47v152h153v-212z" />
    <glyph glyph-name="zacute" unicode="&#x17a;" horiz-adv-x="691" 
d="M59 1035h601l-346 -862h328v-173h-611l358 866h-330v169zM575 1465l-203 -276l-103 59l169 305z" />
    <glyph glyph-name="Aogonek" unicode="&#x104;" horiz-adv-x="835" 
d="M339 1544h162l331 -1544h-206l-58 301h-306l-59 -301h-200zM538 462l-46 246q-46 251 -75 536q-14 -139 -36 -281.5t-52 -302.5l-38 -198h247zM627 0h113q-100 -90 -100 -167q0 -71 79 -71q55 0 99 19v-119q-56 -21 -111 -21q-88 0 -139 43t-51 118q0 90 110 198z" />
    <glyph glyph-name="Zdotaccent" unicode="&#x17b;" horiz-adv-x="773" 
d="M81 1544h680l-464 -1362h439v-182h-710l468 1368h-413v176zM403 1940q48 0 83 -36q35 -35 35 -84q0 -51 -36 -85q-35 -35 -84 -35q-50 0 -85 35q-35 38 -35 86q0 49 35 84q38 35 87 35z" />
    <glyph glyph-name="aogonek" unicode="&#x105;" horiz-adv-x="808" 
d="M699 1035v-1035h-191v133q-41 -85 -82 -117t-108 -32q-129 0 -189 132t-60 414q0 269 60 395.5t189 126.5q118 0 190 -134v117h191zM267 522q0 -204 27 -285q28 -81 98 -81q64 0 93 84q29 90 29 277q0 188 -29 278q-29 84 -93 84q-68 0 -97 -80q-28 -74 -28 -277zM509 0
h113q-100 -90 -100 -167q0 -71 79 -71q55 0 99 19v-119q-56 -21 -111 -21q-88 0 -139 43t-51 118q0 90 110 198z" />
    <glyph glyph-name="Lcaron" unicode="&#x13d;" horiz-adv-x="678" 
d="M119 1544h208v-1368h340v-176h-548v1544zM680 1332l-77 -168l-76 20l55 168l-8 40h-47v152h153v-212z" />
    <glyph glyph-name="zdotaccent" unicode="&#x17c;" horiz-adv-x="691" 
d="M59 1035h601l-346 -862h328v-173h-611l358 866h-330v169zM371 1441q49 0 84 -36q36 -36 36 -86q0 -51 -36 -87q-35 -35 -86 -35t-87 36q-35 38 -35 87q0 50 36 85q36 36 88 36z" />
    <glyph glyph-name="lcaron" unicode="&#x13e;" horiz-adv-x="555" 
d="M108 1699h191v-1699h-191v1699zM545 1332l-77 -168l-76 20l55 168l-8 40h-47v152h153v-212z" />
    <glyph glyph-name="Racute" unicode="&#x154;" horiz-adv-x="863" 
d="M119 1544h274q170 0 253 -81q105 -105 105 -321q0 -166 -55.5 -266.5t-158.5 -124.5l284 -751h-211l-283 756v-756h-208v1544zM327 860q121 0 171 56t50 189q0 72 -10.5 123t-33 83t-58 47t-84.5 15h-35v-513zM503 1978l109 -120l-250 -175l-74 85z" />
    <glyph glyph-name="Abreve" unicode="&#x102;" horiz-adv-x="835" 
d="M339 1544h162l331 -1544h-206l-58 301h-306l-59 -301h-200zM538 462l-46 246q-46 251 -75 536q-14 -139 -36 -281.5t-52 -302.5l-38 -198h247zM568 1936h127q-6 -66 -24.5 -112.5t-51.5 -76t-82.5 -43t-116.5 -13.5q-245 0 -268 245h127q21 -116 147 -116q119 0 142 116z
" />
    <glyph glyph-name="Lacute" unicode="&#x139;" horiz-adv-x="678" 
d="M119 1544h208v-1368h340v-176h-548v1544zM436 1978l109 -120l-250 -175l-74 85z" />
    <glyph glyph-name="Eogonek" unicode="&#x118;" horiz-adv-x="744" 
d="M119 1544h553v-176h-345v-489h306v-176h-306v-527h345v-176h-553v1544zM562 0h113q-100 -90 -100 -167q0 -71 79 -71q55 0 99 19v-119q-56 -21 -111 -21q-88 0 -139 43t-51 118q0 90 110 198z" />
    <glyph glyph-name="Ecaron" unicode="&#x11a;" horiz-adv-x="744" 
d="M119 1544h553v-176h-345v-489h306v-176h-306v-527h345v-176h-553v1544zM392 1683l-257 212l86 107l171 -143l171 143l84 -95z" />
    <glyph glyph-name="Dcaron" unicode="&#x10e;" horiz-adv-x="953" 
d="M119 1544h256q117 0 197 -26q74 -25 132 -89q87 -96 124 -250q37 -149 37 -427q0 -255 -41 -416q-40 -154 -132 -235q-113 -101 -405 -101h-168v1544zM327 182q190 0 254 115q66 115 66 447q0 357 -63 491t-231 134h-26v-1187zM397 1683l-257 212l86 107l171 -143
l171 143l84 -95z" />
    <glyph glyph-name="Dcroat" unicode="&#x110;" horiz-adv-x="953" 
d="M119 1544h256q117 0 197 -26q74 -25 132 -89q85 -94 123 -250q19 -81 28.5 -186.5t9.5 -241.5q0 -254 -41 -415q-40 -154 -132 -235q-113 -101 -405 -101h-168v764h-116v161h116v619zM327 181q190 0 254 115q66 115 66 448q0 357 -63 491t-232 134h-25v-444h201v-161
h-201v-583z" />
    <glyph glyph-name="Nacute" unicode="&#x143;" horiz-adv-x="958" 
d="M119 1544h194l207 -616q90 -261 159 -557q-25 179 -37 324t-12 273v576h209v-1544h-195l-233 695q-32 97 -60.5 199t-52.5 214q-2 14 -6.5 34l-10.5 46l5 -44.5t3 -31.5l11 -157l11 -191q1 -16 1.5 -39t0.5 -52l11 -673h-205v1544zM606 1978l109 -120l-250 -175l-74 85z
" />
    <glyph glyph-name="Ncaron" unicode="&#x147;" horiz-adv-x="958" 
d="M119 1544h194l207 -616q90 -261 159 -557q-25 179 -37 324t-12 273v576h209v-1544h-195l-233 695q-32 97 -60.5 199t-52.5 214q-2 14 -6.5 34l-10.5 46l5 -44.5t3 -31.5l11 -157l11 -191q1 -16 1.5 -39t0.5 -52l11 -673h-205v1544zM466 1683l-257 212l86 107l171 -143
l171 143l84 -95z" />
    <glyph glyph-name="Ohungarumlaut" unicode="&#x150;" horiz-adv-x="979" 
d="M892 734q0 -409 -91 -581t-305 -172q-225 0 -317 185q-91 181 -91 643q0 412 90 583q91 172 308 172q194 0 288 -133q62 -89 90 -253q28 -152 28 -444zM674 712q0 401 -36 532q-36 132 -147 132t-148 -121q-36 -122 -36 -490q0 -339 38 -470q39 -124 146 -124
q105 0 144 116q39 115 39 425zM426 1978l109 -120l-250 -175l-74 85zM725 1978l109 -120l-250 -175l-74 85z" />
    <glyph glyph-name="Hungarumlaut" horiz-adv-x="979" 
d="M426 1978l109 -120l-250 -175l-74 85zM725 1978l109 -120l-250 -175l-74 85z" />
    <glyph glyph-name="Rcaron" unicode="&#x158;" horiz-adv-x="863" 
d="M119 1544h274q170 0 253 -81q105 -105 105 -321q0 -166 -55.5 -266.5t-158.5 -124.5l284 -751h-211l-283 756v-756h-208v1544zM327 860q121 0 171 56t50 189q0 72 -10.5 123t-33 83t-58 47t-84.5 15h-35v-513zM387 1683l-257 212l86 107l171 -143l171 143l84 -95z" />
    <glyph glyph-name="Uring" unicode="&#x16e;" horiz-adv-x="948" 
d="M119 1544h204v-1091q0 -167 30 -222q31 -55 122 -55t120 48q30 49 30 199v1121h204v-1121q0 -252 -77 -341q-92 -101 -281 -101q-208 0 -293 130q-59 89 -59 342v1091zM481 2014q67 0 117 -50q49 -49 49 -119t-50 -120q-49 -49 -119 -49q-71 0 -120 49t-49 121
q0 69 50 119q49 49 122 49zM479 1910q-27 0 -46.5 -19t-19.5 -45q0 -27 19 -46t46 -19q26 0 45 19t19 45q0 27 -18.5 46t-44.5 19z" />
    <glyph glyph-name="Uhungarumlaut" unicode="&#x170;" horiz-adv-x="948" 
d="M119 1544h204v-1091q0 -167 30 -222q31 -55 122 -55t120 48q30 49 30 199v1121h204v-1121q0 -252 -77 -341q-92 -101 -281 -101q-208 0 -293 130q-59 89 -59 342v1091zM426 1978l109 -120l-250 -175l-74 85zM725 1978l109 -120l-250 -175l-74 85z" />
    <glyph glyph-name="Tcedilla" unicode="&#x162;" horiz-adv-x="669" 
d="M-4 1544h677v-182h-233v-1362h-204v1362h-240v182zM417 -322l-77 -168l-76 20l55 168l-8 40h-47v152h153v-212z" />
    <glyph glyph-name="racute" unicode="&#x155;" horiz-adv-x="547" 
d="M108 1035h191v-129q49 82 97 115t127 38v-200q-20 3 -34 3q-103 0 -147 -53q-43 -52 -43 -182v-627h-191v1035zM481 1465l-203 -276l-103 59l169 305z" />
    <glyph glyph-name="abreve" unicode="&#x103;" horiz-adv-x="808" 
d="M699 1035v-1035h-191v133q-41 -85 -82 -117t-108 -32q-129 0 -189 132t-60 414q0 269 60 395.5t189 126.5q118 0 190 -134v117h191zM267 522q0 -204 27 -285q28 -81 98 -81q64 0 93 84q29 90 29 277q0 188 -29 278q-29 84 -93 84q-68 0 -97 -80q-28 -74 -28 -277z
M522 1461h128q-14 -267 -250 -267q-239 0 -258 267h127q8 -146 129 -146q109 0 124 146z" />
    <glyph glyph-name="lacute" unicode="&#x13a;" horiz-adv-x="408" 
d="M108 1699h191v-1699h-191v1699zM331 2040l109 -120l-250 -175l-74 85z" />
    <glyph glyph-name="eogonek" unicode="&#x119;" horiz-adv-x="755" 
d="M508 349h178q-21 -365 -300 -365q-83 0 -142.5 31t-98.5 96t-57.5 165t-18.5 238q0 274 76.5 406t236.5 132q311 0 311 -548v-24h-437q0 -332 132 -332q120 0 120 201zM498 618q-12 163 -37 214q-26 57 -84 57q-59 0 -84 -57q-25 -51 -37 -214h242zM385 0h113
q-100 -90 -100 -167q0 -71 79 -71q55 0 99 19v-119q-56 -21 -111 -21q-88 0 -139 43t-51 118q0 90 110 198z" />
    <glyph glyph-name="ecaron" unicode="&#x11b;" horiz-adv-x="755" 
d="M508 349h178q-21 -365 -300 -365q-83 0 -142.5 31t-98.5 96t-57.5 165t-18.5 238q0 274 76.5 406t236.5 132q311 0 311 -548v-24h-437q0 -332 132 -332q120 0 120 201zM498 618q-12 163 -37 214q-26 57 -84 57q-59 0 -84 -57q-25 -51 -37 -214h242zM391 1189l-258 286
l107 79l148 -170l160 170l96 -79z" />
    <glyph glyph-name="dcaron" unicode="&#x10f;" horiz-adv-x="987" 
d="M699 1699v-1699h-191v133q-41 -85 -82 -117t-109 -32q-128 0 -188 131.5t-60 413.5q0 136 15 235t45.5 163t78.5 94.5t114 30.5q63 0 104 -30q20 -14 41 -40t41 -64v781h191zM267 522q0 -204 27 -285q28 -81 98 -81q64 0 93 84q29 90 29 277q0 188 -29 278q-29 84 -93 84
q-68 0 -97 -80q-28 -74 -28 -277zM945 1332l-77 -168l-76 20l55 168l-8 40h-47v152h153v-212z" />
    <glyph glyph-name="dcroat" unicode="&#x111;" horiz-adv-x="808" 
d="M267 522q0 -204 27 -285q28 -81 98 -81q64 0 93 84q29 90 29 277q0 188 -29 278q-29 84 -93 84q-68 0 -97 -80q-28 -74 -28 -277zM699 1431h141v-161h-141v-1270h-191v133q-41 -85 -82 -117t-109 -32q-128 0 -188 131.5t-60 413.5q0 136 15 235t45.5 163t78.5 94.5
t114 30.5q63 0 104 -30q20 -14 41 -40t41 -64v352h-133v161h133v268h191v-268z" />
    <glyph glyph-name="nacute" unicode="&#x144;" horiz-adv-x="829" 
d="M108 1035h191v-119q82 136 212 136q126 0 180 -99q30 -56 30 -217v-736h-191l-1 692q0 105 -25 149t-86 44q-33 0 -55.5 -11.5t-36.5 -37t-20.5 -66.5t-6.5 -101v-669h-191v1035zM646 1465l-203 -276l-103 59l169 305z" />
    <glyph glyph-name="ncaron" unicode="&#x148;" horiz-adv-x="829" 
d="M108 1035h191v-119q82 136 212 136q126 0 180 -99q30 -56 30 -217v-736h-191l-1 692q0 105 -25 149t-86 44q-33 0 -55.5 -11.5t-36.5 -37t-20.5 -66.5t-6.5 -101v-669h-191v1035zM467 1189l-258 286l107 79l148 -170l160 170l96 -79z" />
    <glyph glyph-name="ohungarumlaut" unicode="&#x151;" horiz-adv-x="789" 
d="M719 509q0 -525 -325 -525t-325 533q0 535 324 535q84 0 145.5 -32t101.5 -99t59.5 -169t19.5 -243zM521 514q0 204 -27 284q-27 81 -96 81q-68 0 -97 -80q-27 -80 -27 -279t27 -278q29 -80 97 -80t95 79q28 74 28 273zM462 1478l-179 -289l-92 50l141 315zM724 1478
l-178 -289l-92 50l141 315z" />
    <glyph glyph-name="rcaron" unicode="&#x159;" horiz-adv-x="547" 
d="M108 1035h191v-129q49 82 97 115t127 38v-200q-20 3 -34 3q-103 0 -147 -53q-43 -52 -43 -182v-627h-191v1035zM293 1189l-258 286l107 79l148 -170l160 170l96 -79z" />
    <glyph glyph-name="uring" unicode="&#x16f;" horiz-adv-x="832" 
d="M108 1035h191v-692q2 -96 28.5 -137t88.5 -41q65 0 91 36q26 38 26 132v83v619h191v-619q0 -217 -32 -290q-67 -142 -278 -142q-166 0 -236 84q-70 85 -70 283v684zM416 1504q67 0 115 -50q49 -49 49 -117q0 -69 -49 -118q-50 -48 -118 -48q-69 0 -118 48q-48 49 -48 119
q0 69 49 117q49 49 120 49zM415 1409q-29 0 -49.5 -20.5t-20.5 -48.5q0 -29 20 -49.5t49 -20.5t49.5 20t20.5 49q0 28 -20.5 49t-48.5 21z" />
    <glyph glyph-name="uhungarumlaut" unicode="&#x171;" horiz-adv-x="832" 
d="M108 1035h191v-692q2 -96 28.5 -137t88.5 -41q65 0 91 36q26 38 26 132v83v619h191v-619q0 -217 -32 -290q-67 -142 -278 -142q-166 0 -236 84q-70 85 -70 283v684zM477 1478l-179 -289l-92 50l141 315zM739 1478l-178 -289l-92 50l141 315z" />
    <glyph glyph-name="tcedilla" unicode="&#x163;" horiz-adv-x="455" 
d="M131 1325h191v-290h104v-152h-104v-883h-191v883h-105v152h105v290zM304 -322l-77 -168l-76 20l55 168l-8 40h-47v152h153v-212z" />
    <glyph glyph-name="Amacron" unicode="&#x100;" horiz-adv-x="835" 
d="M339 1544h162l331 -1544h-206l-58 301h-306l-59 -301h-200zM538 462l-46 246q-46 251 -75 536q-14 -139 -36 -281.5t-52 -302.5l-38 -198h247zM162 1728v144h505v-144h-505z" />
    <glyph glyph-name="Macron" horiz-adv-x="835" 
d="M162 1728v144h505v-144h-505z" />
    <glyph glyph-name="amacron" unicode="&#x101;" horiz-adv-x="808" 
d="M699 1035v-1035h-191v133q-41 -85 -82 -117t-108 -32q-129 0 -189 132t-60 414q0 269 60 395.5t189 126.5q118 0 190 -134v117h191zM267 522q0 -204 27 -285q28 -81 98 -81q64 0 93 84q29 90 29 277q0 188 -29 278q-29 84 -93 84q-68 0 -97 -80q-28 -74 -28 -277z
M155 1241v144h505v-144h-505z" />
    <glyph glyph-name="Emacron" unicode="&#x112;" horiz-adv-x="744" 
d="M119 1544h553v-176h-345v-489h306v-176h-306v-527h345v-176h-553v1544zM138 1728v144h505v-144h-505z" />
    <glyph glyph-name="emacron" unicode="&#x113;" horiz-adv-x="755" 
d="M508 349h178q-21 -365 -300 -365q-83 0 -142.5 31t-98.5 96t-57.5 165t-18.5 238q0 274 76.5 406t236.5 132q311 0 311 -548v-24h-437q0 -332 132 -332q120 0 120 201zM498 618q-12 163 -37 214q-26 57 -84 57q-59 0 -84 -57q-25 -51 -37 -214h242zM128 1241v144h505
v-144h-505z" />
    <glyph glyph-name="Edotaccent" unicode="&#x116;" horiz-adv-x="744" 
d="M119 1544h553v-176h-345v-489h306v-176h-306v-527h345v-176h-553v1544zM379 1940q48 0 83 -36q35 -35 35 -84q0 -51 -36 -85q-35 -35 -84 -35q-50 0 -85 35q-35 38 -35 86q0 49 35 84q38 35 87 35z" />
    <glyph glyph-name="edotaccent" unicode="&#x117;" horiz-adv-x="755" 
d="M508 349h178q-21 -365 -300 -365q-83 0 -142.5 31t-98.5 96t-57.5 165t-18.5 238q0 274 76.5 406t236.5 132q311 0 311 -548v-24h-437q0 -332 132 -332q120 0 120 201zM498 618q-12 163 -37 214q-26 57 -84 57q-59 0 -84 -57q-25 -51 -37 -214h242zM376 1441q49 0 84 -36
q36 -36 36 -86q0 -51 -36 -87q-35 -35 -86 -35t-87 36q-35 38 -35 87q0 50 36 85q36 36 88 36z" />
    <glyph glyph-name="gcedilla" unicode="&#x123;" horiz-adv-x="809" 
d="M509 1035h192v-1068q0 -192 -38 -266q-70 -136 -281 -136q-139 0 -218 79q-80 80 -80 215l1 32h185q0 -165 123 -165q67 0 91 42q25 40 25 159v199q-61 -142 -187 -142q-130 0 -191.5 126t-61.5 394q0 284 59 419q58 129 193 129q64 0 104 -31t84 -110v124zM512 508
q0 371 -128 371q-61 0 -89 -83.5t-28 -267.5q0 -195 29 -287q30 -85 100 -85q66 0 91 76q25 71 25 276zM340 1412l77 168l76 -20l-55 -168l8 -40h47v-152h-153v212z" />
    <glyph glyph-name="Iogonek" unicode="&#x12e;" horiz-adv-x="446" 
d="M119 1544h208v-1544h-208v1544zM216 0h113q-100 -90 -100 -167q0 -71 79 -71q55 0 99 19v-119q-56 -21 -111 -21q-88 0 -139 43t-51 118q0 90 110 198z" />
    <glyph glyph-name="iogonek" unicode="&#x12f;" horiz-adv-x="407" 
d="M108 1035h192v-1035h-192v1035zM198 1475q52 0 90 -38t38 -91q0 -54 -38 -92t-92 -38t-92 38q-37 37 -37 93q0 52 38 90q41 38 93 38zM189 0h113q-100 -90 -100 -167q0 -71 79 -71q55 0 99 19v-119q-56 -21 -111 -21q-88 0 -139 43t-51 118q0 90 110 198z" />
    <glyph glyph-name="Imacron" unicode="&#x12a;" horiz-adv-x="446" 
d="M119 1544h208v-1544h-208v1544zM7 1728v144h429v-144h-429z" />
    <glyph glyph-name="ooze" horiz-adv-x="446" 
d="M7 1728v144h429v-144h-429z" />
    <glyph glyph-name="imacron" unicode="&#x12b;" horiz-adv-x="408" 
d="M108 1035h191v-1035h-191v1035zM1 1241v144h411v-144h-411z" />
    <glyph glyph-name="uniE775" horiz-adv-x="408" 
d="M1 1241v144h411v-144h-411z" />
    <glyph glyph-name="Kcedilla" unicode="&#x136;" horiz-adv-x="862" 
d="M119 1544h208v-748l290 748h210l-304 -748l328 -796h-234l-290 796v-796h-208v1544zM505 -322l-77 -168l-76 20l55 168l-8 40h-47v152h153v-212z" />
    <glyph glyph-name="Lcedilla" unicode="&#x13b;" horiz-adv-x="678" 
d="M119 1544h208v-1368h340v-176h-548v1544zM466 -322l-77 -168l-76 20l55 168l-8 40h-47v152h153v-212z" />
    <glyph glyph-name="lcedilla" unicode="&#x13c;" horiz-adv-x="408" 
d="M108 1699h191v-1699h-191v1699zM288 -322l-77 -168l-76 20l55 168l-8 40h-47v152h153v-212z" />
    <glyph glyph-name="Ncedilla" unicode="&#x145;" horiz-adv-x="958" 
d="M119 1544h194l207 -616q90 -261 159 -557q-25 179 -37 324t-12 273v576h209v-1544h-195l-233 695q-32 97 -60.5 199t-52.5 214q-2 14 -6.5 34l-10.5 46l5 -44.5t3 -31.5l11 -157l11 -191q1 -16 1.5 -39t0.5 -52l11 -673h-205v1544zM562 -322l-77 -168l-76 20l55 168
l-8 40h-47v152h153v-212z" />
    <glyph glyph-name="ncedilla" unicode="&#x146;" horiz-adv-x="829" 
d="M108 1035h191v-119q82 136 212 136q126 0 180 -99q30 -56 30 -217v-736h-191l-1 692q0 105 -25 149t-86 44q-33 0 -55.5 -11.5t-36.5 -37t-20.5 -66.5t-6.5 -101v-669h-191v1035zM497 -322l-77 -168l-76 20l55 168l-8 40h-47v152h153v-212z" />
    <glyph glyph-name="Omacron" unicode="&#x14c;" horiz-adv-x="979" 
d="M892 734q0 -409 -91 -581t-305 -172q-225 0 -317 185q-91 181 -91 643q0 412 90 583q91 172 308 172q194 0 288 -133q62 -89 90 -253q28 -152 28 -444zM674 712q0 401 -36 532q-36 132 -147 132t-148 -121q-36 -122 -36 -490q0 -339 38 -470q39 -124 146 -124
q105 0 144 116q39 115 39 425zM236 1728v144h505v-144h-505z" />
    <glyph glyph-name="omacron" unicode="&#x14d;" horiz-adv-x="789" 
d="M719 509q0 -525 -325 -525t-325 533q0 535 324 535q84 0 145.5 -32t101.5 -99t59.5 -169t19.5 -243zM521 514q0 204 -27 284q-27 81 -96 81q-68 0 -97 -80q-27 -80 -27 -279t27 -278q29 -80 97 -80t95 79q28 74 28 273zM142 1241v144h505v-144h-505z" />
    <glyph glyph-name="Rcedilla" unicode="&#x156;" horiz-adv-x="863" 
d="M119 1544h274q170 0 253 -81q105 -105 105 -321q0 -166 -55.5 -266.5t-158.5 -124.5l284 -751h-211l-283 756v-756h-208v1544zM327 860q121 0 171 56t50 189q0 72 -10.5 123t-33 83t-58 47t-84.5 15h-35v-513zM511 -322l-77 -168l-76 20l55 168l-8 40h-47v152h153v-212z
" />
    <glyph glyph-name="rcedilla" unicode="&#x157;" horiz-adv-x="547" 
d="M108 1035h191v-129q49 82 97 115t127 38v-200q-20 3 -34 3q-103 0 -147 -53q-43 -52 -43 -182v-627h-191v1035zM290 -322l-77 -168l-76 20l55 168l-8 40h-47v152h153v-212z" />
    <glyph glyph-name="Umacron" unicode="&#x16a;" horiz-adv-x="948" 
d="M119 1544h204v-1091q0 -167 30 -222q31 -55 122 -55t120 48q30 49 30 199v1121h204v-1121q0 -252 -77 -341q-92 -101 -281 -101q-208 0 -293 130q-59 89 -59 342v1091zM221 1728v144h505v-144h-505z" />
    <glyph glyph-name="umacron" unicode="&#x16b;" horiz-adv-x="832" 
d="M108 1035h191v-692q2 -96 28.5 -137t88.5 -41q65 0 91 36q26 38 26 132v83v619h191v-619q0 -217 -32 -290q-67 -142 -278 -142q-166 0 -236 84q-70 85 -70 283v684zM163 1241v144h505v-144h-505z" />
    <glyph glyph-name="Uogonek" unicode="&#x172;" horiz-adv-x="948" 
d="M119 1544h204v-1091q0 -167 30 -222q31 -55 122 -55t120 48q30 49 30 199v1121h204v-1121q0 -252 -77 -341q-92 -101 -281 -101q-208 0 -293 130q-59 89 -59 342v1091zM507 0h113q-100 -90 -100 -167q0 -71 79 -71q55 0 99 19v-119q-56 -21 -111 -21q-88 0 -139 43
t-51 118q0 90 110 198z" />
    <glyph glyph-name="uogonek" unicode="&#x173;" horiz-adv-x="832" 
d="M108 1035h191v-692q2 -96 28.5 -137t88.5 -41q65 0 91 36q26 38 26 132v83v619h191v-619q0 -217 -32 -290q-67 -142 -278 -142q-166 0 -236 84q-70 85 -70 283v684zM429 0h113q-100 -90 -100 -167q0 -71 79 -71q55 0 99 19v-119q-56 -21 -111 -21q-88 0 -139 43t-51 118
q0 90 110 198z" />
    <glyph glyph-name="kcedilla" unicode="&#x137;" horiz-adv-x="801" 
d="M108 1699h191v-1125l243 461h216l-264 -461l299 -574h-224l-270 550v-550h-191v1699zM472 -322l-77 -168l-76 20l55 168l-8 40h-47v152h153v-212z" />
    <glyph glyph-name="Gcedilla" unicode="&#x122;" horiz-adv-x="955" 
d="M489 812h378v-60q0 -451 -79 -609q-78 -162 -292 -162q-221 0 -315 180q-93 180 -93 605q0 486 102 647q96 151 295 151q152 0 237 -73q86 -74 134 -243l-194 -81q-13 61 -29 102.5t-35 64.5q-38 47 -114 47q-104 0 -142 -128q-38 -134 -38 -481q0 -351 39 -475t147 -124
q99 0 139 88q41 94 41 302v42v31h-181v176zM574 -322l-77 -168l-76 20l55 168l-8 40h-47v152h153v-212z" />
    <glyph glyph-name="Scedilla" unicode="&#x15e;" horiz-adv-x="764" 
d="M634 1512v-203q-95 68 -171 68q-82 0 -134 -58q-52 -55 -52 -147q0 -81 37 -139q19 -31 62.5 -80t112.5 -118q127 -129 173 -223q46 -91 46 -223q0 -179 -101 -295q-101 -113 -259 -113q-133 0 -227 73v206q111 -81 202 -81q85 0 133 56.5t48 153.5q0 84 -37 151
q-19 32 -53 73.5t-85 92.5q-79 78 -131 138t-77 105q-48 88 -48 222q0 181 94 287q95 107 255 107q111 0 212 -53zM343 -104l135 -66l-175 -271l-88 46z" />
    <glyph glyph-name="scedilla" unicode="&#x15f;" horiz-adv-x="602" 
d="M508 1014v-179q-70 52 -147 52q-26 0 -48 -9t-38.5 -24.5t-26 -37t-9.5 -45.5q0 -74 134 -176q54 -42 90 -78t55 -68q39 -63 39 -159q0 -139 -81 -223q-80 -83 -215 -83q-83 0 -168 49v185q83 -62 157 -62q131 0 131 129q0 48 -24 83q-11 17 -35 39.5t-59 50.5
q-121 94 -164 158q-42 66 -42 159q0 125 77 205q78 79 203 79q88 0 171 -45zM235 -104l135 -66l-175 -271l-88 46z" />
    <glyph glyph-name="uni2400" horiz-adv-x="1024" 
 />
    <glyph glyph-name="apple" unicode="&#xf8ff;" horiz-adv-x="1618" 
d="M836 1204q41 0 145 35t178 35q123 0 219 -66q27 -20 53.5 -44.5t53.5 -57.5q-80 -70 -117 -123q-68 -94 -68 -211q0 -127 72 -229q70 -101 162 -129q-21 -62 -51.5 -126.5t-73.5 -129.5q-131 -195 -264 -195q-55 0 -146 33q-88 27 -153 27q-68 0 -148 -29
q-86 -35 -135 -35q-155 0 -307 260q-152 262 -152 516q0 234 115 383q117 148 293 148q76 0 182 -31q109 -31 142 -31zM1149 1618q0 -66 -31 -141.5t-94 -141.5q-59 -55 -113 -73q-39 -11 -104 -17q2 152 79 263.5t257 152.5q4 -14 5 -24.5t1 -18.5z" />
    <glyph glyph-name="gravecmb" unicode="&#x300;" horiz-adv-x="0" 
d="M-838 1465l137 88l169 -305l-103 -59z" />
    <glyph glyph-name="acutecmb" unicode="&#x301;" horiz-adv-x="0" 
d="M-316 1465l-203 -276l-103 59l169 305z" />
    <glyph glyph-name="circumflexcmb" unicode="&#x302;" horiz-adv-x="0" 
d="M-574 1554l253 -286l-96 -79l-160 170l-148 -170l-107 79z" />
    <glyph glyph-name="tildecmb" unicode="&#x303;" horiz-adv-x="0" 
d="M-436 1408h117q-5 -56 -15.5 -95t-28.5 -63t-45 -35t-65 -11q-42 0 -94 27l-50 24q-29 15 -55 15q-36 0 -44 -56h-120q15 202 155 202q56 0 134 -45q41 -23 70 -23q32 0 41 60z" />
    <glyph glyph-name="macroncmb" unicode="&#x304;" horiz-adv-x="0" 
d="M-828 1241v144h505v-144h-505z" />
    <glyph glyph-name="brevecmb" unicode="&#x306;" horiz-adv-x="0" 
d="M-451 1461h128q-14 -267 -250 -267q-239 0 -258 267h127q8 -146 129 -146q109 0 124 146z" />
    <glyph glyph-name="dotaccentcmb" unicode="&#x307;" horiz-adv-x="0" 
d="M-576 1441q49 0 84 -36q36 -36 36 -86q0 -51 -36 -87q-35 -35 -86 -35t-87 36q-35 38 -35 87q0 50 36 85q36 36 88 36z" />
    <glyph glyph-name="dieresiscmb" unicode="&#x308;" horiz-adv-x="0" 
d="M-751 1429q47 0 81 -34t34 -82t-34 -82t-83 -34q-48 0 -82 34t-34 83q0 48 34 81q34 34 84 34zM-400 1429q46 0 80 -34t34 -82t-34 -82t-82 -34q-24 0 -45.5 9t-37 25t-24.5 37.5t-9 45.5q0 48 34 81q34 34 84 34z" />
    <glyph glyph-name="ringcmb" unicode="&#x30a;" horiz-adv-x="0" 
d="M-574 1504q67 0 115 -50q49 -49 49 -117q0 -69 -49 -118q-50 -48 -118 -48q-69 0 -118 48q-48 49 -48 119q0 69 49 117q49 49 120 49zM-575 1409q-29 0 -49.5 -20.5t-20.5 -48.5q0 -29 20 -49.5t49 -20.5t49.5 20t20.5 49q0 28 -20.5 49t-48.5 21z" />
    <glyph glyph-name="hungarumlautcmb" unicode="&#x30b;" horiz-adv-x="0" 
d="M-487 1478l-179 -289l-92 50l141 315zM-225 1478l-178 -289l-92 50l141 315z" />
    <glyph glyph-name="caroncmb" unicode="&#x30c;" horiz-adv-x="0" 
d="M-574 1189l-258 286l107 79l148 -170l160 170l96 -79z" />
    <glyph glyph-name="cedillacmb" unicode="&#x327;" horiz-adv-x="0" 
d="M-534 -104l135 -66l-175 -271l-88 46z" />
    <glyph glyph-name="ogonekcmb" unicode="&#x328;" horiz-adv-x="0" 
d="M-563 0h113q-100 -90 -100 -167q0 -71 79 -71q55 0 99 19v-119q-56 -21 -111 -21q-88 0 -139 43t-51 118q0 90 110 198z" />
    <glyph glyph-name="soliduslongoverlaycmb" unicode="&#x338;" horiz-adv-x="0" 
d="M-98 1699h161l-920 -2123h-163z" />
    <glyph glyph-name="commaaccent" unicode="&#x326;" horiz-adv-x="0" 
d="M-116 -322l-77 -168l-76 20l55 168l-8 40h-47v152h153v-212z" />
    <glyph glyph-name="dotlessj" horiz-adv-x="407" 
d="M108 1035h192v-1459h-192v1459z" />
    <glyph glyph-name="Ccircumflex" unicode="&#x108;" horiz-adv-x="781" 
d="M725 1519v-187q-80 39 -134 39q-74 0 -127 -36.5t-87.5 -112.5t-51 -192.5t-16.5 -275.5q0 -572 293 -572q51 0 123 32v-191q-75 -42 -168 -42q-469 0 -469 766q0 414 114.5 616t350.5 202q87 0 172 -46zM500 2069l253 -286l-96 -79l-160 170l-148 -170l-107 79z" />
    <glyph glyph-name="ccircumflex" unicode="&#x109;" horiz-adv-x="585" 
d="M531 1015v-195q-40 49 -96 49q-158 0 -158 -342q0 -363 157 -363q44 0 97 39v-179q-76 -40 -154 -40q-308 0 -308 524q0 279 76 411.5t236 132.5q77 0 150 -37zM327 1554l253 -286l-96 -79l-160 170l-148 -170l-107 79z" />
    <glyph glyph-name="Cdotaccent" unicode="&#x10a;" horiz-adv-x="781" 
d="M725 1519v-187q-80 39 -134 39q-74 0 -127 -36.5t-87.5 -112.5t-51 -192.5t-16.5 -275.5q0 -572 293 -572q51 0 123 32v-191q-75 -42 -168 -42q-469 0 -469 766q0 414 114.5 616t350.5 202q87 0 172 -46zM534 1941q49 0 84 -36q36 -36 36 -86q0 -51 -36 -87
q-35 -35 -86 -35t-87 36q-35 38 -35 87q0 50 36 85q36 36 88 36z" />
    <glyph glyph-name="cdotaccent" unicode="&#x10b;" horiz-adv-x="585" 
d="M531 1015v-195q-40 49 -96 49q-158 0 -158 -342q0 -363 157 -363q44 0 97 39v-179q-76 -40 -154 -40q-308 0 -308 524q0 279 76 411.5t236 132.5q77 0 150 -37zM360 1448q49 0 84 -36q36 -36 36 -86q0 -51 -36 -87q-35 -35 -86 -35t-87 36q-35 38 -35 87q0 50 36 85
q36 36 88 36z" />
    <glyph glyph-name="Ebreve" unicode="&#x114;" horiz-adv-x="744" 
d="M119 1544h553v-176h-345v-489h306v-176h-306v-527h345v-176h-553v1544zM512 1961h128q-14 -267 -250 -267q-239 0 -258 267h127q8 -146 129 -146q109 0 124 146z" />
    <glyph glyph-name="ebreve" unicode="&#x115;" horiz-adv-x="755" 
d="M508 349h178q-21 -365 -300 -365q-83 0 -142.5 31t-98.5 96t-57.5 165t-18.5 238q0 274 76.5 406t236.5 132q311 0 311 -548v-24h-437q0 -332 132 -332q120 0 120 201zM498 618q-12 163 -37 214q-26 57 -84 57q-59 0 -84 -57q-25 -51 -37 -214h242zM505 1461h128
q-14 -267 -250 -267q-239 0 -258 267h127q8 -146 129 -146q109 0 124 146z" />
    <glyph glyph-name="Gcircumflex" unicode="&#x11c;" horiz-adv-x="955" 
d="M489 812h378v-60q0 -451 -79 -609q-78 -162 -292 -162q-221 0 -315 180q-93 180 -93 605q0 486 102 647q96 151 295 151q152 0 237 -73q86 -74 134 -243l-194 -81q-13 61 -29 102.5t-35 64.5q-38 47 -114 47q-104 0 -142 -128q-38 -134 -38 -481q0 -351 39 -475t147 -124
q99 0 139 88q41 94 41 302v42v31h-181v176zM480 2062l253 -286l-96 -79l-160 170l-148 -170l-107 79z" />
    <glyph glyph-name="gcircumflex" unicode="&#x11d;" horiz-adv-x="809" 
d="M509 1035h192v-1068q0 -192 -38 -266q-70 -136 -281 -136q-139 0 -218 79q-80 80 -80 215l1 32h185q0 -165 123 -165q67 0 91 42q25 40 25 159v199q-61 -142 -187 -142q-130 0 -191.5 126t-61.5 394q0 284 59 419q58 129 193 129q64 0 104 -31t84 -110v124zM512 508
q0 371 -128 371q-61 0 -89 -83.5t-28 -267.5q0 -195 29 -287q30 -85 100 -85q66 0 91 76q25 71 25 276zM341 1568l253 -286l-96 -79l-160 170l-148 -170l-107 79z" />
    <glyph glyph-name="Gdotaccent" unicode="&#x120;" horiz-adv-x="955" 
d="M489 812h378v-60q0 -451 -79 -609q-78 -162 -292 -162q-221 0 -315 180q-93 180 -93 605q0 486 102 647q96 151 295 151q152 0 237 -73q86 -74 134 -243l-194 -81q-13 61 -29 102.5t-35 64.5q-38 47 -114 47q-104 0 -142 -128q-38 -134 -38 -481q0 -351 39 -475t147 -124
q99 0 139 88q41 94 41 302v42v31h-181v176zM499 1941q49 0 84 -36q36 -36 36 -86q0 -51 -36 -87q-35 -35 -86 -35t-87 36q-35 38 -35 87q0 50 36 85q36 36 88 36z" />
    <glyph glyph-name="gdotaccent" unicode="&#x121;" horiz-adv-x="809" 
d="M509 1035h192v-1068q0 -192 -38 -266q-70 -136 -281 -136q-139 0 -218 79q-80 80 -80 215l1 32h185q0 -165 123 -165q67 0 91 42q25 40 25 159v199q-61 -142 -187 -142q-130 0 -191.5 126t-61.5 394q0 284 59 419q58 129 193 129q64 0 104 -31t84 -110v124zM512 508
q0 371 -128 371q-61 0 -89 -83.5t-28 -267.5q0 -195 29 -287q30 -85 100 -85q66 0 91 76q25 71 25 276zM312 1441q49 0 84 -36q36 -36 36 -86q0 -51 -36 -87q-35 -35 -86 -35t-87 36q-35 38 -35 87q0 50 36 85q36 36 88 36z" />
    <glyph glyph-name="Hcircumflex" unicode="&#x124;" horiz-adv-x="959" 
d="M119 1544h208v-604h305v604h208v-1544h-208v764h-305v-764h-208v1544zM480 2062l253 -286l-96 -79l-160 170l-148 -170l-107 79z" />
    <glyph glyph-name="hcircumflex" unicode="&#x125;" horiz-adv-x="829" 
d="M108 1699h191v-783q82 136 212 136q126 0 180 -99q30 -56 30 -217v-736h-191l-1 692q0 105 -25 149t-86 44q-33 0 -55.5 -11.5t-36.5 -37t-20.5 -66.5t-6.5 -101v-669h-191v1699zM209 2062l253 -286l-96 -79l-160 170l-148 -170l-107 79z" />
    <glyph glyph-name="Hbar" unicode="&#x126;" horiz-adv-x="1161" 
d="M216 1539h208v-604h305v604h208v-1544h-208v764h-305v-764h-208v1544zM-6 1377h1158v-183h-1158v183z" />
    <glyph glyph-name="hbar" unicode="&#x127;" horiz-adv-x="917" 
d="M184 1694h191v-783q82 136 212 136q126 0 180 -99q30 -56 30 -217v-736h-191l-1 692q0 105 -25 149t-86 44q-33 0 -55.5 -11.5t-36.5 -37t-20.5 -66.5t-6.5 -101v-669h-191v1699zM-5 1540h546v-156h-546v156z" />
    <glyph glyph-name="Itilde" unicode="&#x128;" horiz-adv-x="507" 
d="M395 1894h117q-5 -56 -15.5 -95t-28.5 -63t-45 -35t-65 -11q-42 0 -94 27l-50 24q-29 15 -55 15q-36 0 -44 -56h-120q15 202 155 202q56 0 134 -45q41 -23 70 -23q32 0 41 60zM119 1544h208v-1544h-208v1544z" />
    <glyph glyph-name="itilde" unicode="&#x129;" horiz-adv-x="514" 
d="M402 1408h117q-5 -56 -15.5 -95t-28.5 -63t-45 -35t-65 -11q-42 0 -94 27l-50 24q-29 15 -55 15q-36 0 -44 -56h-120q15 202 155 202q56 0 134 -45q41 -23 70 -23q32 0 41 60zM149 1042h191v-1035h-191v1035z" />
    <glyph glyph-name="Ibreve" unicode="&#x12c;" horiz-adv-x="500" 
d="M373 1961h128q-14 -267 -250 -267q-239 0 -258 267h127q8 -146 129 -146q109 0 124 146zM119 1544h208v-1544h-208v1544z" />
    <glyph glyph-name="ibreve" unicode="&#x12d;" horiz-adv-x="514" 
d="M380 1468h128q-14 -267 -250 -267q-239 0 -258 267h127q8 -146 129 -146q109 0 124 146zM157 1023h191v-1035h-191v1035z" />
    <glyph glyph-name="IJ" unicode="&#x132;" horiz-adv-x="1216" 
d="M119 1544h208v-1544h-208v1544zM806 1544h209v-1185q0 -181 -53 -261q-78 -117 -254 -117q-104 0 -177 40v208q89 -53 138 -53q137 0 137 193v62v1113z" />
    <glyph glyph-name="ij" unicode="&#x133;" 
d="M108 1035h192v-1035h-192v1035zM198 1475q52 0 90 -38t38 -91q0 -54 -38 -92t-92 -38t-92 38q-37 37 -37 93q0 52 38 90q41 38 93 38zM518 1035h192v-1459h-192v1459zM608 1475q52 0 90 -38t38 -91q0 -54 -38 -92t-92 -38t-92 38q-37 37 -37 93q0 52 38 90q41 38 93 38z
" />
    <glyph glyph-name="Jcircumflex" unicode="&#x134;" horiz-adv-x="639" 
d="M376 2055l253 -286l-96 -79l-160 170l-148 -170l-107 79zM271 1544h209v-1185q0 -181 -53 -261q-78 -117 -254 -117q-104 0 -177 40v208q89 -53 138 -53q137 0 137 193v62v1113z" />
    <glyph glyph-name="jcircumflex" unicode="&#x135;" horiz-adv-x="500" 
d="M250 1561l253 -286l-96 -79l-160 170l-148 -170l-107 79zM149 1030h192v-1459h-192v1459z" />
    <glyph glyph-name="kgreenlandic" unicode="&#x138;" horiz-adv-x="801" 
d="M108 1035h191v-461l243 461h216l-264 -461l299 -574h-224l-270 550v-550h-191v1035z" />
    <glyph glyph-name="Ldotaccent" unicode="&#x13f;" horiz-adv-x="778" 
d="M119 1544h208v-1368h340v-176h-548v1544zM602 1441q49 0 84 -36q36 -36 36 -86q0 -51 -36 -87q-35 -35 -86 -35t-87 36q-35 38 -35 87q0 50 36 85q36 36 88 36z" />
    <glyph glyph-name="ldotaccent" unicode="&#x140;" horiz-adv-x="841" 
d="M108 1699h191v-1699h-191v1699zM581 1441q49 0 84 -36q36 -36 36 -86q0 -51 -36 -87q-35 -35 -86 -35t-87 36q-35 38 -35 87q0 50 36 85q36 36 88 36z" />
    <glyph glyph-name="quoterightn" unicode="&#x149;" horiz-adv-x="829" 
d="M358 1035h191v-119q82 136 212 136q126 0 180 -99q30 -56 30 -217v-736h-191l-1 692q0 105 -25 149t-86 44q-33 0 -55.5 -11.5t-36.5 -37t-20.5 -66.5t-6.5 -101v-669h-191v1035zM230 1593l166 -49l-198 -544l-105 30z" />
    <glyph glyph-name="Obreve" unicode="&#x14e;" horiz-adv-x="979" 
d="M892 734q0 -409 -91 -581t-305 -172q-225 0 -317 185q-91 181 -91 643q0 412 90 583q91 172 308 172q194 0 288 -133q62 -89 90 -253q28 -152 28 -444zM674 712q0 401 -36 532q-36 132 -147 132t-148 -121q-36 -122 -36 -490q0 -339 38 -470q39 -124 146 -124
q105 0 144 116q39 115 39 425zM610 1954h128q-14 -267 -250 -267q-239 0 -258 267h127q8 -146 129 -146q109 0 124 146z" />
    <glyph glyph-name="obreve" unicode="&#x14f;" horiz-adv-x="789" 
d="M719 509q0 -525 -325 -525t-325 533q0 535 324 535q84 0 145.5 -32t101.5 -99t59.5 -169t19.5 -243zM521 514q0 204 -27 284q-27 81 -96 81q-68 0 -97 -80q-27 -80 -27 -279t27 -278q29 -80 97 -80t95 79q28 74 28 273zM533 1468h128q-14 -267 -250 -267q-239 0 -258 267
h127q8 -146 129 -146q109 0 124 146z" />
    <glyph glyph-name="Scircumflex" unicode="&#x15c;" horiz-adv-x="764" 
d="M634 1512v-203q-95 68 -171 68q-82 0 -134 -58q-52 -55 -52 -147q0 -81 37 -139q19 -31 62.5 -80t112.5 -118q127 -129 173 -223q46 -91 46 -223q0 -179 -101 -295q-101 -113 -259 -113q-133 0 -227 73v206q111 -81 202 -81q85 0 133 56.5t48 153.5q0 84 -37 151
q-19 32 -53 73.5t-85 92.5q-79 78 -131 138t-77 105q-48 88 -48 222q0 181 94 287q95 107 255 107q111 0 212 -53zM424 2062l253 -286l-96 -79l-160 170l-148 -170l-107 79z" />
    <glyph glyph-name="scircumflex" unicode="&#x15d;" horiz-adv-x="602" 
d="M508 1014v-179q-70 52 -147 52q-26 0 -48 -9t-38.5 -24.5t-26 -37t-9.5 -45.5q0 -74 134 -176q54 -42 90 -78t55 -68q39 -63 39 -159q0 -139 -81 -223q-80 -83 -215 -83q-83 0 -168 49v185q83 -62 157 -62q131 0 131 129q0 48 -24 83q-11 17 -35 39.5t-59 50.5
q-121 94 -164 158q-42 66 -42 159q0 125 77 205q78 79 203 79q88 0 171 -45zM327 1561l253 -286l-96 -79l-160 170l-148 -170l-107 79z" />
    <glyph glyph-name="Tbar" unicode="&#x166;" horiz-adv-x="669" 
d="M-4 1544h677v-182h-233v-1362h-204v1362h-240v182zM63 1046h546v-156h-546v156z" />
    <glyph glyph-name="tbar" unicode="&#x167;" horiz-adv-x="563" 
d="M180 1321h191v-290h104v-152h-104v-883h-191v883h-105v152h105v290zM-5 741h546v-156h-546v156z" />
    <glyph glyph-name="Utilde" unicode="&#x168;" horiz-adv-x="948" 
d="M119 1544h204v-1091q0 -167 30 -222q31 -55 122 -55t120 48q30 49 30 199v1121h204v-1121q0 -252 -77 -341q-92 -101 -281 -101q-208 0 -293 130q-59 89 -59 342v1091zM625 1894h117q-5 -56 -15.5 -95t-28.5 -63t-45 -35t-65 -11q-42 0 -94 27l-50 24q-29 15 -55 15
q-36 0 -44 -56h-120q15 202 155 202q56 0 134 -45q41 -23 70 -23q32 0 41 60z" />
    <glyph glyph-name="utilde" unicode="&#x169;" horiz-adv-x="832" 
d="M108 1035h191v-692q2 -96 28.5 -137t88.5 -41q65 0 91 36q26 38 26 132v83v619h191v-619q0 -217 -32 -290q-67 -142 -278 -142q-166 0 -236 84q-70 85 -70 283v684zM576 1408h117q-5 -56 -15.5 -95t-28.5 -63t-45 -35t-65 -11q-42 0 -94 27l-50 24q-29 15 -55 15
q-36 0 -44 -56h-120q15 202 155 202q56 0 134 -45q41 -23 70 -23q32 0 41 60z" />
    <glyph glyph-name="Ubreve" unicode="&#x16c;" horiz-adv-x="948" 
d="M119 1544h204v-1091q0 -167 30 -222q31 -55 122 -55t120 48q30 49 30 199v1121h204v-1121q0 -252 -77 -341q-92 -101 -281 -101q-208 0 -293 130q-59 89 -59 342v1091zM603 1961h128q-14 -267 -250 -267q-239 0 -258 267h127q8 -146 129 -146q109 0 124 146z" />
    <glyph glyph-name="ubreve" unicode="&#x16d;" horiz-adv-x="832" 
d="M108 1035h191v-692q2 -96 28.5 -137t88.5 -41q65 0 91 36q26 38 26 132v83v619h191v-619q0 -217 -32 -290q-67 -142 -278 -142q-166 0 -236 84q-70 85 -70 283v684zM547 1468h128q-14 -267 -250 -267q-239 0 -258 267h127q8 -146 129 -146q109 0 124 146z" />
    <glyph glyph-name="Wcircumflex" unicode="&#x174;" horiz-adv-x="1214" 
d="M3 1544h201l105 -717l17 -106q12 -86 18 -157l11 -131q1 -5 2 -18t3 -33l5 50q12 131 25.5 241t29.5 203l111 668h160l104 -649q23 -144 38.5 -267t25.5 -235q10 118 22.5 228t26.5 216l15 103l89 604h199l-273 -1544h-162l-109 667q-1 4 -5 33l-12 83l-21 154
q-2 18 -6.5 54t-9.5 91l-5 64q-2 -23 -4 -40t-3 -28q-5 -66 -8.5 -102.5t-4.5 -44.5l-21 -148l-11 -80t-6 -36l-113 -667h-167zM610 2055l253 -286l-96 -79l-160 170l-148 -170l-107 79z" />
    <glyph glyph-name="wcircumflex" unicode="&#x175;" horiz-adv-x="1039" 
d="M15 1035h202l58 -333q17 -100 30.5 -193t21.5 -181l3 -36l4 38q8 72 16.5 132.5t18.5 111.5l16 79l71 382h139l67 -382l22 -120q7 -34 13 -84.5t12 -119.5l4 -37q18 186 51 361l71 382h188l-243 -1035h-132l-79 395q-14 72 -24 147.5t-17 160.5q-1 10 -2 24t-3 33
q-6 -91 -17 -176.5t-27 -170.5l-80 -413h-132zM528 1554l253 -286l-96 -79l-160 170l-148 -170l-107 79z" />
    <glyph glyph-name="Ycircumflex" unicode="&#x176;" horiz-adv-x="791" 
d="M-4 1544h220l102 -336q5 -15 10 -33t12 -39q57 -182 78 -306q18 124 30 173l32 138l12 54l86 349h217l-269 -880v-664h-208v664zM424 2062l253 -286l-96 -79l-160 170l-148 -170l-107 79z" />
    <glyph glyph-name="ycircumflex" unicode="&#x177;" horiz-adv-x="755" 
d="M8 1035h216l152 -722l178 722h194l-423 -1459h-201l159 507zM382 1568l253 -286l-96 -79l-160 170l-148 -170l-107 79z" />
    </font>
</defs>
</svg>
